<mxfile host="app.diagrams.net" modified="2024-07-12T22:39:29.370Z" agent="Mozilla/5.0 (Macintosh; Intel Mac OS X 10_15_7) AppleWebKit/605.1.15 (KHTML, like Gecko) Version/17.0 Safari/605.1.15" etag="4MproNL3ZhLBNEe7PjB3" version="24.4.7" type="github" pages="9">
  <diagram name="Trunk Dev" id="nTOvdVp5pzPeS-D21o1n">
    <mxGraphModel dx="1221" dy="815" grid="1" gridSize="10" guides="1" tooltips="1" connect="1" arrows="1" fold="1" page="1" pageScale="1" pageWidth="1100" pageHeight="850" math="0" shadow="0">
      <root>
        <mxCell id="T5_zPhailC9nTq8L5Gjl-0" />
        <mxCell id="T5_zPhailC9nTq8L5Gjl-1" parent="T5_zPhailC9nTq8L5Gjl-0" />
        <mxCell id="T5_zPhailC9nTq8L5Gjl-2" value="" style="edgeStyle=orthogonalEdgeStyle;rounded=0;orthogonalLoop=1;jettySize=auto;html=1;endArrow=none;endFill=0;strokeWidth=4;" edge="1" parent="T5_zPhailC9nTq8L5Gjl-1" source="T5_zPhailC9nTq8L5Gjl-4" target="T5_zPhailC9nTq8L5Gjl-6">
          <mxGeometry relative="1" as="geometry" />
        </mxCell>
        <mxCell id="T5_zPhailC9nTq8L5Gjl-4" value="" style="verticalLabelPosition=bottom;verticalAlign=top;html=1;strokeWidth=4;shape=mxgraph.flowchart.on-page_reference;plain-purple;gradientColor=none;strokeColor=#000000;fillColor=#D5E8D4;" vertex="1" parent="T5_zPhailC9nTq8L5Gjl-1">
          <mxGeometry x="381" y="150" width="30" height="30" as="geometry" />
        </mxCell>
        <mxCell id="T5_zPhailC9nTq8L5Gjl-5" value="" style="edgeStyle=orthogonalEdgeStyle;curved=1;rounded=0;orthogonalLoop=1;jettySize=auto;html=1;endArrow=none;endFill=0;strokeWidth=4;" edge="1" parent="T5_zPhailC9nTq8L5Gjl-1" source="T5_zPhailC9nTq8L5Gjl-6" target="T5_zPhailC9nTq8L5Gjl-8">
          <mxGeometry relative="1" as="geometry" />
        </mxCell>
        <mxCell id="T5_zPhailC9nTq8L5Gjl-6" value="" style="verticalLabelPosition=bottom;verticalAlign=top;html=1;strokeWidth=4;shape=mxgraph.flowchart.on-page_reference;plain-purple;gradientColor=none;strokeColor=#000000;fillColor=#D5E8D4;" vertex="1" parent="T5_zPhailC9nTq8L5Gjl-1">
          <mxGeometry x="450" y="150" width="30" height="30" as="geometry" />
        </mxCell>
        <mxCell id="T5_zPhailC9nTq8L5Gjl-7" value="" style="edgeStyle=orthogonalEdgeStyle;curved=1;rounded=0;orthogonalLoop=1;jettySize=auto;html=1;endArrow=none;endFill=0;strokeWidth=4;fontFamily=Courier New;fontColor=#009900;" edge="1" parent="T5_zPhailC9nTq8L5Gjl-1" source="T5_zPhailC9nTq8L5Gjl-8" target="T5_zPhailC9nTq8L5Gjl-9">
          <mxGeometry relative="1" as="geometry" />
        </mxCell>
        <mxCell id="T5_zPhailC9nTq8L5Gjl-8" value="" style="verticalLabelPosition=bottom;verticalAlign=top;html=1;strokeWidth=4;shape=mxgraph.flowchart.on-page_reference;plain-purple;gradientColor=none;strokeColor=#000000;fillColor=#D5E8D4;" vertex="1" parent="T5_zPhailC9nTq8L5Gjl-1">
          <mxGeometry x="520" y="150" width="30" height="30" as="geometry" />
        </mxCell>
        <mxCell id="T5_zPhailC9nTq8L5Gjl-9" value="" style="verticalLabelPosition=bottom;verticalAlign=top;html=1;strokeWidth=4;shape=mxgraph.flowchart.on-page_reference;strokeColor=#b85450;fillColor=#f8cecc;" vertex="1" parent="T5_zPhailC9nTq8L5Gjl-1">
          <mxGeometry x="640" y="150" width="30" height="30" as="geometry" />
        </mxCell>
        <mxCell id="T5_zPhailC9nTq8L5Gjl-10" value="develop" style="text;html=1;strokeColor=none;fillColor=none;align=left;verticalAlign=middle;whiteSpace=wrap;overflow=hidden;fontSize=14;fontStyle=1;fontFamily=Courier New;" vertex="1" parent="T5_zPhailC9nTq8L5Gjl-1">
          <mxGeometry x="52" y="153" width="91" height="20" as="geometry" />
        </mxCell>
        <mxCell id="T5_zPhailC9nTq8L5Gjl-15" value="The development or sprint branch" style="text;html=1;strokeColor=none;fillColor=none;align=left;verticalAlign=middle;whiteSpace=wrap;overflow=hidden;fontSize=14;fontStyle=0;fontColor=#009900;" vertex="1" parent="T5_zPhailC9nTq8L5Gjl-1">
          <mxGeometry x="50" y="173" width="240" height="20" as="geometry" />
        </mxCell>
        <mxCell id="T5_zPhailC9nTq8L5Gjl-18" value="" style="endArrow=classic;html=1;strokeWidth=1;fontFamily=Courier New;fontColor=#009900;" edge="1" parent="T5_zPhailC9nTq8L5Gjl-1">
          <mxGeometry width="50" height="50" relative="1" as="geometry">
            <mxPoint x="151" y="163" as="sourcePoint" />
            <mxPoint x="341" y="163" as="targetPoint" />
          </mxGeometry>
        </mxCell>
      </root>
    </mxGraphModel>
  </diagram>
  <diagram name="Trunk Reviews" id="LeofUHlsi51wusKTRu7t">
    <mxGraphModel dx="1221" dy="815" grid="1" gridSize="10" guides="1" tooltips="1" connect="1" arrows="1" fold="1" page="1" pageScale="1" pageWidth="1100" pageHeight="850" math="0" shadow="0">
      <root>
        <mxCell id="uehN-722wMw0b8lgEU7z-0" />
        <mxCell id="uehN-722wMw0b8lgEU7z-1" parent="uehN-722wMw0b8lgEU7z-0" />
        <mxCell id="uehN-722wMw0b8lgEU7z-2" value="" style="edgeStyle=orthogonalEdgeStyle;rounded=0;orthogonalLoop=1;jettySize=auto;html=1;endArrow=none;endFill=0;strokeWidth=4;" edge="1" parent="uehN-722wMw0b8lgEU7z-1" source="uehN-722wMw0b8lgEU7z-3" target="uehN-722wMw0b8lgEU7z-5">
          <mxGeometry relative="1" as="geometry" />
        </mxCell>
        <mxCell id="uehN-722wMw0b8lgEU7z-3" value="" style="verticalLabelPosition=bottom;verticalAlign=top;html=1;strokeWidth=4;shape=mxgraph.flowchart.on-page_reference;plain-purple;gradientColor=none;strokeColor=#000000;fillColor=#D5E8D4;" vertex="1" parent="uehN-722wMw0b8lgEU7z-1">
          <mxGeometry x="110" y="150" width="30" height="30" as="geometry" />
        </mxCell>
        <mxCell id="uehN-722wMw0b8lgEU7z-4" value="" style="edgeStyle=orthogonalEdgeStyle;curved=1;rounded=0;orthogonalLoop=1;jettySize=auto;html=1;endArrow=none;endFill=0;strokeWidth=4;" edge="1" parent="uehN-722wMw0b8lgEU7z-1" source="uehN-722wMw0b8lgEU7z-5" target="uehN-722wMw0b8lgEU7z-7">
          <mxGeometry relative="1" as="geometry" />
        </mxCell>
        <mxCell id="uehN-722wMw0b8lgEU7z-5" value="" style="verticalLabelPosition=bottom;verticalAlign=top;html=1;strokeWidth=4;shape=mxgraph.flowchart.on-page_reference;plain-purple;gradientColor=none;strokeColor=#000000;fillColor=#D5E8D4;" vertex="1" parent="uehN-722wMw0b8lgEU7z-1">
          <mxGeometry x="179" y="150" width="30" height="30" as="geometry" />
        </mxCell>
        <mxCell id="uehN-722wMw0b8lgEU7z-6" value="" style="edgeStyle=orthogonalEdgeStyle;curved=1;rounded=0;orthogonalLoop=1;jettySize=auto;html=1;endArrow=none;endFill=0;strokeWidth=4;fontFamily=Courier New;fontColor=#009900;" edge="1" parent="uehN-722wMw0b8lgEU7z-1" source="uehN-722wMw0b8lgEU7z-7" target="uehN-722wMw0b8lgEU7z-8">
          <mxGeometry relative="1" as="geometry" />
        </mxCell>
        <mxCell id="uehN-722wMw0b8lgEU7z-7" value="" style="verticalLabelPosition=bottom;verticalAlign=top;html=1;strokeWidth=4;shape=mxgraph.flowchart.on-page_reference;plain-purple;gradientColor=none;strokeColor=#000000;fillColor=#D5E8D4;" vertex="1" parent="uehN-722wMw0b8lgEU7z-1">
          <mxGeometry x="249" y="150" width="30" height="30" as="geometry" />
        </mxCell>
        <mxCell id="-ZsKGIF_DZo4FCoBSzOk-0" value="" style="group" vertex="1" connectable="0" parent="uehN-722wMw0b8lgEU7z-1">
          <mxGeometry x="309" y="110" width="150" height="160" as="geometry" />
        </mxCell>
        <mxCell id="-ZsKGIF_DZo4FCoBSzOk-1" value="" style="rounded=0;whiteSpace=wrap;html=1;fillColor=none;strokeColor=#9673a6;" vertex="1" parent="-ZsKGIF_DZo4FCoBSzOk-0">
          <mxGeometry width="150" height="160" as="geometry" />
        </mxCell>
        <mxCell id="-ZsKGIF_DZo4FCoBSzOk-2" value="Peer Review for &amp;nbsp;these changes." style="text;html=1;align=center;verticalAlign=middle;whiteSpace=wrap;rounded=0;" vertex="1" parent="-ZsKGIF_DZo4FCoBSzOk-0">
          <mxGeometry x="20" y="80" width="110" height="70" as="geometry" />
        </mxCell>
        <mxCell id="uehN-722wMw0b8lgEU7z-8" value="" style="verticalLabelPosition=bottom;verticalAlign=top;html=1;strokeWidth=4;shape=mxgraph.flowchart.on-page_reference;strokeColor=#b85450;fillColor=#f8cecc;" vertex="1" parent="uehN-722wMw0b8lgEU7z-1">
          <mxGeometry x="369" y="150" width="30" height="30" as="geometry" />
        </mxCell>
        <mxCell id="-ZsKGIF_DZo4FCoBSzOk-4" value="" style="verticalLabelPosition=bottom;verticalAlign=top;html=1;strokeWidth=4;shape=mxgraph.flowchart.on-page_reference;plain-purple;gradientColor=none;strokeColor=#000000;fillColor=#D5E8D4;" vertex="1" parent="uehN-722wMw0b8lgEU7z-1">
          <mxGeometry x="480" y="150" width="30" height="30" as="geometry" />
        </mxCell>
        <mxCell id="-ZsKGIF_DZo4FCoBSzOk-7" value="" style="edgeStyle=orthogonalEdgeStyle;curved=1;rounded=0;orthogonalLoop=1;jettySize=auto;html=1;endArrow=none;endFill=0;strokeWidth=4;exitX=1;exitY=0.5;exitDx=0;exitDy=0;exitPerimeter=0;entryX=0;entryY=0.5;entryDx=0;entryDy=0;entryPerimeter=0;" edge="1" parent="uehN-722wMw0b8lgEU7z-1" source="uehN-722wMw0b8lgEU7z-8" target="-ZsKGIF_DZo4FCoBSzOk-4">
          <mxGeometry relative="1" as="geometry">
            <mxPoint x="219" y="175" as="sourcePoint" />
            <mxPoint x="259" y="175" as="targetPoint" />
          </mxGeometry>
        </mxCell>
        <mxCell id="-ZsKGIF_DZo4FCoBSzOk-8" value="" style="edgeStyle=orthogonalEdgeStyle;curved=1;rounded=0;orthogonalLoop=1;jettySize=auto;html=1;endArrow=none;endFill=0;strokeWidth=4;exitX=1;exitY=0.5;exitDx=0;exitDy=0;exitPerimeter=0;entryX=0;entryY=0.5;entryDx=0;entryDy=0;entryPerimeter=0;" edge="1" parent="uehN-722wMw0b8lgEU7z-1" source="-ZsKGIF_DZo4FCoBSzOk-4" target="-ZsKGIF_DZo4FCoBSzOk-14">
          <mxGeometry relative="1" as="geometry">
            <mxPoint x="229" y="185" as="sourcePoint" />
            <mxPoint x="670" y="165" as="targetPoint" />
          </mxGeometry>
        </mxCell>
        <mxCell id="-ZsKGIF_DZo4FCoBSzOk-9" value="" style="verticalLabelPosition=bottom;verticalAlign=top;html=1;strokeWidth=4;shape=mxgraph.flowchart.on-page_reference;plain-purple;gradientColor=none;strokeColor=#000000;fillColor=#D5E8D4;" vertex="1" parent="uehN-722wMw0b8lgEU7z-1">
          <mxGeometry x="550" y="150" width="30" height="30" as="geometry" />
        </mxCell>
        <mxCell id="-ZsKGIF_DZo4FCoBSzOk-14" value="" style="verticalLabelPosition=bottom;verticalAlign=top;html=1;strokeWidth=4;shape=mxgraph.flowchart.on-page_reference;plain-purple;gradientColor=none;strokeColor=#000000;fillColor=#D5E8D4;" vertex="1" parent="uehN-722wMw0b8lgEU7z-1">
          <mxGeometry x="670" y="150" width="30" height="30" as="geometry" />
        </mxCell>
        <mxCell id="-ZsKGIF_DZo4FCoBSzOk-18" value="" style="group" vertex="1" connectable="0" parent="uehN-722wMw0b8lgEU7z-1">
          <mxGeometry x="610" y="110" width="150" height="160" as="geometry" />
        </mxCell>
        <mxCell id="-ZsKGIF_DZo4FCoBSzOk-11" value="" style="rounded=0;whiteSpace=wrap;html=1;fillColor=none;strokeColor=#9673a6;" vertex="1" parent="-ZsKGIF_DZo4FCoBSzOk-18">
          <mxGeometry width="150" height="160" as="geometry" />
        </mxCell>
        <mxCell id="-ZsKGIF_DZo4FCoBSzOk-12" value="Daily Build for:&lt;div&gt;QA&lt;/div&gt;&lt;div&gt;SME&lt;/div&gt;&lt;div&gt;PO&lt;/div&gt;" style="text;html=1;align=center;verticalAlign=middle;whiteSpace=wrap;rounded=0;" vertex="1" parent="-ZsKGIF_DZo4FCoBSzOk-18">
          <mxGeometry x="20" y="80" width="110" height="70" as="geometry" />
        </mxCell>
      </root>
    </mxGraphModel>
  </diagram>
  <diagram name="Trunk Reviews Punch List" id="mqsd3Vwc7u916FkwWxg5">
    <mxGraphModel dx="1221" dy="815" grid="1" gridSize="10" guides="1" tooltips="1" connect="1" arrows="1" fold="1" page="1" pageScale="1" pageWidth="1100" pageHeight="850" math="0" shadow="0">
      <root>
        <mxCell id="TW7qYVT3mGWlGdjUQZHi-0" />
        <mxCell id="TW7qYVT3mGWlGdjUQZHi-1" parent="TW7qYVT3mGWlGdjUQZHi-0" />
        <mxCell id="TW7qYVT3mGWlGdjUQZHi-17" value="" style="group" vertex="1" connectable="0" parent="TW7qYVT3mGWlGdjUQZHi-1">
          <mxGeometry x="610" y="110" width="150" height="160" as="geometry" />
        </mxCell>
        <mxCell id="TW7qYVT3mGWlGdjUQZHi-18" value="" style="rounded=0;whiteSpace=wrap;html=1;fillColor=none;strokeColor=#9673a6;" vertex="1" parent="TW7qYVT3mGWlGdjUQZHi-17">
          <mxGeometry width="150" height="160" as="geometry" />
        </mxCell>
        <mxCell id="TW7qYVT3mGWlGdjUQZHi-19" value="Daily Build for:&lt;div&gt;QA&lt;/div&gt;&lt;div&gt;SME&lt;/div&gt;&lt;div&gt;PO&lt;/div&gt;" style="text;html=1;align=center;verticalAlign=middle;whiteSpace=wrap;rounded=0;" vertex="1" parent="TW7qYVT3mGWlGdjUQZHi-17">
          <mxGeometry x="20" y="80" width="110" height="70" as="geometry" />
        </mxCell>
        <mxCell id="TW7qYVT3mGWlGdjUQZHi-2" value="" style="edgeStyle=orthogonalEdgeStyle;rounded=0;orthogonalLoop=1;jettySize=auto;html=1;endArrow=none;endFill=0;strokeWidth=4;" edge="1" parent="TW7qYVT3mGWlGdjUQZHi-1" source="TW7qYVT3mGWlGdjUQZHi-3" target="TW7qYVT3mGWlGdjUQZHi-5">
          <mxGeometry relative="1" as="geometry" />
        </mxCell>
        <mxCell id="TW7qYVT3mGWlGdjUQZHi-3" value="" style="verticalLabelPosition=bottom;verticalAlign=top;html=1;strokeWidth=4;shape=mxgraph.flowchart.on-page_reference;plain-purple;gradientColor=none;strokeColor=#000000;fillColor=#D5E8D4;" vertex="1" parent="TW7qYVT3mGWlGdjUQZHi-1">
          <mxGeometry x="110" y="150" width="30" height="30" as="geometry" />
        </mxCell>
        <mxCell id="TW7qYVT3mGWlGdjUQZHi-4" value="" style="edgeStyle=orthogonalEdgeStyle;curved=1;rounded=0;orthogonalLoop=1;jettySize=auto;html=1;endArrow=none;endFill=0;strokeWidth=4;" edge="1" parent="TW7qYVT3mGWlGdjUQZHi-1" source="TW7qYVT3mGWlGdjUQZHi-5" target="TW7qYVT3mGWlGdjUQZHi-7">
          <mxGeometry relative="1" as="geometry" />
        </mxCell>
        <mxCell id="TW7qYVT3mGWlGdjUQZHi-5" value="" style="verticalLabelPosition=bottom;verticalAlign=top;html=1;strokeWidth=4;shape=mxgraph.flowchart.on-page_reference;plain-purple;gradientColor=none;strokeColor=#000000;fillColor=#D5E8D4;" vertex="1" parent="TW7qYVT3mGWlGdjUQZHi-1">
          <mxGeometry x="179" y="150" width="30" height="30" as="geometry" />
        </mxCell>
        <mxCell id="TW7qYVT3mGWlGdjUQZHi-6" value="" style="edgeStyle=orthogonalEdgeStyle;curved=1;rounded=0;orthogonalLoop=1;jettySize=auto;html=1;endArrow=none;endFill=0;strokeWidth=4;fontFamily=Courier New;fontColor=#009900;" edge="1" parent="TW7qYVT3mGWlGdjUQZHi-1" source="TW7qYVT3mGWlGdjUQZHi-7" target="TW7qYVT3mGWlGdjUQZHi-11">
          <mxGeometry relative="1" as="geometry" />
        </mxCell>
        <mxCell id="TW7qYVT3mGWlGdjUQZHi-7" value="" style="verticalLabelPosition=bottom;verticalAlign=top;html=1;strokeWidth=4;shape=mxgraph.flowchart.on-page_reference;plain-purple;gradientColor=none;strokeColor=#000000;fillColor=#D5E8D4;" vertex="1" parent="TW7qYVT3mGWlGdjUQZHi-1">
          <mxGeometry x="249" y="150" width="30" height="30" as="geometry" />
        </mxCell>
        <mxCell id="TW7qYVT3mGWlGdjUQZHi-8" value="" style="group" vertex="1" connectable="0" parent="TW7qYVT3mGWlGdjUQZHi-1">
          <mxGeometry x="309" y="110" width="150" height="160" as="geometry" />
        </mxCell>
        <mxCell id="TW7qYVT3mGWlGdjUQZHi-9" value="" style="rounded=0;whiteSpace=wrap;html=1;fillColor=none;strokeColor=#9673a6;" vertex="1" parent="TW7qYVT3mGWlGdjUQZHi-8">
          <mxGeometry width="150" height="160" as="geometry" />
        </mxCell>
        <mxCell id="TW7qYVT3mGWlGdjUQZHi-10" value="Peer Review for &amp;nbsp;these changes." style="text;html=1;align=center;verticalAlign=middle;whiteSpace=wrap;rounded=0;" vertex="1" parent="TW7qYVT3mGWlGdjUQZHi-8">
          <mxGeometry x="20" y="80" width="110" height="70" as="geometry" />
        </mxCell>
        <mxCell id="TW7qYVT3mGWlGdjUQZHi-11" value="" style="verticalLabelPosition=bottom;verticalAlign=top;html=1;strokeWidth=4;shape=mxgraph.flowchart.on-page_reference;strokeColor=#b85450;fillColor=#f8cecc;" vertex="1" parent="TW7qYVT3mGWlGdjUQZHi-1">
          <mxGeometry x="369" y="150" width="30" height="30" as="geometry" />
        </mxCell>
        <mxCell id="TW7qYVT3mGWlGdjUQZHi-12" value="" style="verticalLabelPosition=bottom;verticalAlign=top;html=1;strokeWidth=4;shape=mxgraph.flowchart.on-page_reference;plain-purple;gradientColor=none;strokeColor=#000000;fillColor=#D5E8D4;" vertex="1" parent="TW7qYVT3mGWlGdjUQZHi-1">
          <mxGeometry x="480" y="150" width="30" height="30" as="geometry" />
        </mxCell>
        <mxCell id="TW7qYVT3mGWlGdjUQZHi-13" value="" style="edgeStyle=orthogonalEdgeStyle;curved=1;rounded=0;orthogonalLoop=1;jettySize=auto;html=1;endArrow=none;endFill=0;strokeWidth=4;exitX=1;exitY=0.5;exitDx=0;exitDy=0;exitPerimeter=0;entryX=0;entryY=0.5;entryDx=0;entryDy=0;entryPerimeter=0;" edge="1" parent="TW7qYVT3mGWlGdjUQZHi-1" source="TW7qYVT3mGWlGdjUQZHi-11" target="TW7qYVT3mGWlGdjUQZHi-12">
          <mxGeometry relative="1" as="geometry">
            <mxPoint x="219" y="175" as="sourcePoint" />
            <mxPoint x="259" y="175" as="targetPoint" />
          </mxGeometry>
        </mxCell>
        <mxCell id="TW7qYVT3mGWlGdjUQZHi-14" value="" style="edgeStyle=orthogonalEdgeStyle;curved=1;rounded=0;orthogonalLoop=1;jettySize=auto;html=1;endArrow=none;endFill=0;strokeWidth=4;exitX=1;exitY=0.5;exitDx=0;exitDy=0;exitPerimeter=0;entryX=0;entryY=0.5;entryDx=0;entryDy=0;entryPerimeter=0;" edge="1" parent="TW7qYVT3mGWlGdjUQZHi-1" source="TW7qYVT3mGWlGdjUQZHi-12" target="TW7qYVT3mGWlGdjUQZHi-16">
          <mxGeometry relative="1" as="geometry">
            <mxPoint x="229" y="185" as="sourcePoint" />
            <mxPoint x="670" y="165" as="targetPoint" />
          </mxGeometry>
        </mxCell>
        <mxCell id="TW7qYVT3mGWlGdjUQZHi-15" value="" style="verticalLabelPosition=bottom;verticalAlign=top;html=1;strokeWidth=4;shape=mxgraph.flowchart.on-page_reference;plain-purple;gradientColor=none;strokeColor=#000000;fillColor=#D5E8D4;" vertex="1" parent="TW7qYVT3mGWlGdjUQZHi-1">
          <mxGeometry x="550" y="150" width="30" height="30" as="geometry" />
        </mxCell>
        <mxCell id="TW7qYVT3mGWlGdjUQZHi-16" value="" style="verticalLabelPosition=bottom;verticalAlign=top;html=1;strokeWidth=4;shape=mxgraph.flowchart.on-page_reference;plain-purple;gradientColor=none;strokeColor=#000000;fillColor=#D5E8D4;" vertex="1" parent="TW7qYVT3mGWlGdjUQZHi-1">
          <mxGeometry x="670" y="150" width="30" height="30" as="geometry" />
        </mxCell>
        <mxCell id="cIUXbX082i8fbG5azLWp-2" value="" style="edgeStyle=orthogonalEdgeStyle;curved=1;rounded=0;orthogonalLoop=1;jettySize=auto;html=1;endArrow=none;endFill=0;strokeWidth=4;exitX=1;exitY=0.5;exitDx=0;exitDy=0;exitPerimeter=0;" edge="1" parent="TW7qYVT3mGWlGdjUQZHi-1" source="cIUXbX082i8fbG5azLWp-3">
          <mxGeometry relative="1" as="geometry">
            <mxPoint x="715" y="164.5" as="sourcePoint" />
            <mxPoint x="1030" y="165" as="targetPoint" />
          </mxGeometry>
        </mxCell>
        <mxCell id="OB5KgF_CTwwPVSsKJKx4-1" value="" style="verticalLabelPosition=bottom;verticalAlign=top;html=1;strokeWidth=4;shape=mxgraph.flowchart.on-page_reference;strokeColor=#82b366;fillColor=#d5e8d4;" vertex="1" parent="TW7qYVT3mGWlGdjUQZHi-1">
          <mxGeometry x="880" y="150" width="30" height="30" as="geometry" />
        </mxCell>
        <mxCell id="OB5KgF_CTwwPVSsKJKx4-2" value="" style="verticalLabelPosition=bottom;verticalAlign=top;html=1;strokeWidth=4;shape=mxgraph.flowchart.on-page_reference;strokeColor=#82b366;fillColor=#d5e8d4;" vertex="1" parent="TW7qYVT3mGWlGdjUQZHi-1">
          <mxGeometry x="930" y="150" width="30" height="30" as="geometry" />
        </mxCell>
        <mxCell id="cIUXbX082i8fbG5azLWp-4" value="" style="edgeStyle=orthogonalEdgeStyle;curved=1;rounded=0;orthogonalLoop=1;jettySize=auto;html=1;endArrow=none;endFill=0;strokeWidth=4;exitX=1;exitY=0.5;exitDx=0;exitDy=0;exitPerimeter=0;" edge="1" parent="TW7qYVT3mGWlGdjUQZHi-1" source="TW7qYVT3mGWlGdjUQZHi-16" target="cIUXbX082i8fbG5azLWp-3">
          <mxGeometry relative="1" as="geometry">
            <mxPoint x="700" y="165" as="sourcePoint" />
            <mxPoint x="960" y="165" as="targetPoint" />
          </mxGeometry>
        </mxCell>
        <mxCell id="cIUXbX082i8fbG5azLWp-3" value="" style="verticalLabelPosition=bottom;verticalAlign=top;html=1;strokeWidth=4;shape=mxgraph.flowchart.on-page_reference;plain-purple;gradientColor=none;strokeColor=#000000;fillColor=#D5E8D4;" vertex="1" parent="TW7qYVT3mGWlGdjUQZHi-1">
          <mxGeometry x="830" y="150" width="30" height="30" as="geometry" />
        </mxCell>
        <mxCell id="OB5KgF_CTwwPVSsKJKx4-0" value="" style="verticalLabelPosition=bottom;verticalAlign=top;html=1;strokeWidth=4;shape=mxgraph.flowchart.on-page_reference;strokeColor=#82b366;fillColor=#d5e8d4;" vertex="1" parent="TW7qYVT3mGWlGdjUQZHi-1">
          <mxGeometry x="780" y="150" width="30" height="30" as="geometry" />
        </mxCell>
        <mxCell id="7rpY0KW68TpiEihp-CxH-0" value="" style="group" vertex="1" connectable="0" parent="TW7qYVT3mGWlGdjUQZHi-1">
          <mxGeometry x="770" y="140" width="50" height="80" as="geometry" />
        </mxCell>
        <mxCell id="7rpY0KW68TpiEihp-CxH-1" value="" style="group" vertex="1" connectable="0" parent="7rpY0KW68TpiEihp-CxH-0">
          <mxGeometry width="50" height="80" as="geometry" />
        </mxCell>
        <mxCell id="7rpY0KW68TpiEihp-CxH-2" value="" style="rounded=0;whiteSpace=wrap;html=1;fillColor=none;strokeColor=#9673a6;" vertex="1" parent="7rpY0KW68TpiEihp-CxH-1">
          <mxGeometry x="1.7857142857142858" width="46.42857142857143" height="80" as="geometry" />
        </mxCell>
        <mxCell id="7rpY0KW68TpiEihp-CxH-3" value="PR/Mini QA" style="text;html=1;align=center;verticalAlign=middle;whiteSpace=wrap;rounded=0;" vertex="1" parent="7rpY0KW68TpiEihp-CxH-1">
          <mxGeometry y="40" width="50" height="35" as="geometry" />
        </mxCell>
        <mxCell id="7rpY0KW68TpiEihp-CxH-4" value="" style="group" vertex="1" connectable="0" parent="TW7qYVT3mGWlGdjUQZHi-1">
          <mxGeometry x="870" y="140" width="50" height="80" as="geometry" />
        </mxCell>
        <mxCell id="7rpY0KW68TpiEihp-CxH-5" value="" style="group" vertex="1" connectable="0" parent="7rpY0KW68TpiEihp-CxH-4">
          <mxGeometry width="50" height="80" as="geometry" />
        </mxCell>
        <mxCell id="7rpY0KW68TpiEihp-CxH-6" value="" style="rounded=0;whiteSpace=wrap;html=1;fillColor=none;strokeColor=#9673a6;" vertex="1" parent="7rpY0KW68TpiEihp-CxH-5">
          <mxGeometry x="1.7857142857142858" width="46.42857142857143" height="80" as="geometry" />
        </mxCell>
        <mxCell id="7rpY0KW68TpiEihp-CxH-7" value="PR/Mini QA" style="text;html=1;align=center;verticalAlign=middle;whiteSpace=wrap;rounded=0;" vertex="1" parent="7rpY0KW68TpiEihp-CxH-5">
          <mxGeometry y="40" width="50" height="35" as="geometry" />
        </mxCell>
        <mxCell id="7rpY0KW68TpiEihp-CxH-8" value="" style="group" vertex="1" connectable="0" parent="TW7qYVT3mGWlGdjUQZHi-1">
          <mxGeometry x="920" y="140" width="50" height="80" as="geometry" />
        </mxCell>
        <mxCell id="7rpY0KW68TpiEihp-CxH-9" value="" style="group" vertex="1" connectable="0" parent="7rpY0KW68TpiEihp-CxH-8">
          <mxGeometry width="50" height="80" as="geometry" />
        </mxCell>
        <mxCell id="7rpY0KW68TpiEihp-CxH-10" value="" style="rounded=0;whiteSpace=wrap;html=1;fillColor=none;strokeColor=#9673a6;" vertex="1" parent="7rpY0KW68TpiEihp-CxH-9">
          <mxGeometry x="1.7857142857142858" width="46.42857142857143" height="80" as="geometry" />
        </mxCell>
        <mxCell id="7rpY0KW68TpiEihp-CxH-11" value="PR/Mini QA" style="text;html=1;align=center;verticalAlign=middle;whiteSpace=wrap;rounded=0;" vertex="1" parent="7rpY0KW68TpiEihp-CxH-9">
          <mxGeometry y="40" width="50" height="35" as="geometry" />
        </mxCell>
      </root>
    </mxGraphModel>
  </diagram>
  <diagram name="Copy of Trunk Reviews Punch List" id="G7XbERdMNz8Pk6VxkFbb">
    <mxGraphModel dx="1221" dy="815" grid="1" gridSize="10" guides="1" tooltips="1" connect="1" arrows="1" fold="1" page="1" pageScale="1" pageWidth="1100" pageHeight="850" math="0" shadow="0">
      <root>
        <mxCell id="mRS_ABq0ETW8iZQ2E5yz-0" />
        <mxCell id="mRS_ABq0ETW8iZQ2E5yz-1" parent="mRS_ABq0ETW8iZQ2E5yz-0" />
        <mxCell id="mRS_ABq0ETW8iZQ2E5yz-2" value="" style="group" vertex="1" connectable="0" parent="mRS_ABq0ETW8iZQ2E5yz-1">
          <mxGeometry x="610" y="110" width="150" height="160" as="geometry" />
        </mxCell>
        <mxCell id="mRS_ABq0ETW8iZQ2E5yz-3" value="" style="rounded=0;whiteSpace=wrap;html=1;fillColor=none;strokeColor=#9673a6;" vertex="1" parent="mRS_ABq0ETW8iZQ2E5yz-2">
          <mxGeometry width="150" height="160" as="geometry" />
        </mxCell>
        <mxCell id="mRS_ABq0ETW8iZQ2E5yz-4" value="Daily Build for:&lt;div&gt;QA&lt;/div&gt;&lt;div&gt;SME&lt;/div&gt;&lt;div&gt;PO&lt;/div&gt;" style="text;html=1;align=center;verticalAlign=middle;whiteSpace=wrap;rounded=0;" vertex="1" parent="mRS_ABq0ETW8iZQ2E5yz-2">
          <mxGeometry x="20" y="80" width="110" height="70" as="geometry" />
        </mxCell>
        <mxCell id="mRS_ABq0ETW8iZQ2E5yz-5" value="" style="edgeStyle=orthogonalEdgeStyle;rounded=0;orthogonalLoop=1;jettySize=auto;html=1;endArrow=none;endFill=0;strokeWidth=4;" edge="1" parent="mRS_ABq0ETW8iZQ2E5yz-1" source="mRS_ABq0ETW8iZQ2E5yz-6" target="mRS_ABq0ETW8iZQ2E5yz-8">
          <mxGeometry relative="1" as="geometry" />
        </mxCell>
        <mxCell id="mRS_ABq0ETW8iZQ2E5yz-6" value="" style="verticalLabelPosition=bottom;verticalAlign=top;html=1;strokeWidth=4;shape=mxgraph.flowchart.on-page_reference;plain-purple;gradientColor=none;strokeColor=#000000;fillColor=#D5E8D4;" vertex="1" parent="mRS_ABq0ETW8iZQ2E5yz-1">
          <mxGeometry x="110" y="150" width="30" height="30" as="geometry" />
        </mxCell>
        <mxCell id="mRS_ABq0ETW8iZQ2E5yz-7" value="" style="edgeStyle=orthogonalEdgeStyle;curved=1;rounded=0;orthogonalLoop=1;jettySize=auto;html=1;endArrow=none;endFill=0;strokeWidth=4;" edge="1" parent="mRS_ABq0ETW8iZQ2E5yz-1" source="mRS_ABq0ETW8iZQ2E5yz-8" target="mRS_ABq0ETW8iZQ2E5yz-10">
          <mxGeometry relative="1" as="geometry" />
        </mxCell>
        <mxCell id="mRS_ABq0ETW8iZQ2E5yz-8" value="" style="verticalLabelPosition=bottom;verticalAlign=top;html=1;strokeWidth=4;shape=mxgraph.flowchart.on-page_reference;plain-purple;gradientColor=none;strokeColor=#000000;fillColor=#D5E8D4;" vertex="1" parent="mRS_ABq0ETW8iZQ2E5yz-1">
          <mxGeometry x="179" y="150" width="30" height="30" as="geometry" />
        </mxCell>
        <mxCell id="mRS_ABq0ETW8iZQ2E5yz-9" value="" style="edgeStyle=orthogonalEdgeStyle;curved=1;rounded=0;orthogonalLoop=1;jettySize=auto;html=1;endArrow=none;endFill=0;strokeWidth=4;fontFamily=Courier New;fontColor=#009900;" edge="1" parent="mRS_ABq0ETW8iZQ2E5yz-1" source="mRS_ABq0ETW8iZQ2E5yz-10" target="mRS_ABq0ETW8iZQ2E5yz-14">
          <mxGeometry relative="1" as="geometry" />
        </mxCell>
        <mxCell id="mRS_ABq0ETW8iZQ2E5yz-10" value="" style="verticalLabelPosition=bottom;verticalAlign=top;html=1;strokeWidth=4;shape=mxgraph.flowchart.on-page_reference;plain-purple;gradientColor=none;strokeColor=#000000;fillColor=#D5E8D4;" vertex="1" parent="mRS_ABq0ETW8iZQ2E5yz-1">
          <mxGeometry x="249" y="150" width="30" height="30" as="geometry" />
        </mxCell>
        <mxCell id="mRS_ABq0ETW8iZQ2E5yz-11" value="" style="group" vertex="1" connectable="0" parent="mRS_ABq0ETW8iZQ2E5yz-1">
          <mxGeometry x="309" y="110" width="150" height="160" as="geometry" />
        </mxCell>
        <mxCell id="mRS_ABq0ETW8iZQ2E5yz-12" value="" style="rounded=0;whiteSpace=wrap;html=1;fillColor=none;strokeColor=#9673a6;" vertex="1" parent="mRS_ABq0ETW8iZQ2E5yz-11">
          <mxGeometry width="150" height="160" as="geometry" />
        </mxCell>
        <mxCell id="mRS_ABq0ETW8iZQ2E5yz-13" value="Peer Review for &amp;nbsp;these changes." style="text;html=1;align=center;verticalAlign=middle;whiteSpace=wrap;rounded=0;" vertex="1" parent="mRS_ABq0ETW8iZQ2E5yz-11">
          <mxGeometry x="20" y="80" width="110" height="70" as="geometry" />
        </mxCell>
        <mxCell id="mRS_ABq0ETW8iZQ2E5yz-14" value="" style="verticalLabelPosition=bottom;verticalAlign=top;html=1;strokeWidth=4;shape=mxgraph.flowchart.on-page_reference;strokeColor=#b85450;fillColor=#f8cecc;" vertex="1" parent="mRS_ABq0ETW8iZQ2E5yz-1">
          <mxGeometry x="369" y="150" width="30" height="30" as="geometry" />
        </mxCell>
        <mxCell id="mRS_ABq0ETW8iZQ2E5yz-15" value="" style="verticalLabelPosition=bottom;verticalAlign=top;html=1;strokeWidth=4;shape=mxgraph.flowchart.on-page_reference;plain-purple;gradientColor=none;strokeColor=#000000;fillColor=#D5E8D4;" vertex="1" parent="mRS_ABq0ETW8iZQ2E5yz-1">
          <mxGeometry x="480" y="150" width="30" height="30" as="geometry" />
        </mxCell>
        <mxCell id="mRS_ABq0ETW8iZQ2E5yz-16" value="" style="edgeStyle=orthogonalEdgeStyle;curved=1;rounded=0;orthogonalLoop=1;jettySize=auto;html=1;endArrow=none;endFill=0;strokeWidth=4;exitX=1;exitY=0.5;exitDx=0;exitDy=0;exitPerimeter=0;entryX=0;entryY=0.5;entryDx=0;entryDy=0;entryPerimeter=0;" edge="1" parent="mRS_ABq0ETW8iZQ2E5yz-1" source="mRS_ABq0ETW8iZQ2E5yz-14" target="mRS_ABq0ETW8iZQ2E5yz-15">
          <mxGeometry relative="1" as="geometry">
            <mxPoint x="219" y="175" as="sourcePoint" />
            <mxPoint x="259" y="175" as="targetPoint" />
          </mxGeometry>
        </mxCell>
        <mxCell id="mRS_ABq0ETW8iZQ2E5yz-17" value="" style="edgeStyle=orthogonalEdgeStyle;curved=1;rounded=0;orthogonalLoop=1;jettySize=auto;html=1;endArrow=none;endFill=0;strokeWidth=4;exitX=1;exitY=0.5;exitDx=0;exitDy=0;exitPerimeter=0;entryX=0;entryY=0.5;entryDx=0;entryDy=0;entryPerimeter=0;" edge="1" parent="mRS_ABq0ETW8iZQ2E5yz-1" source="mRS_ABq0ETW8iZQ2E5yz-15" target="mRS_ABq0ETW8iZQ2E5yz-19">
          <mxGeometry relative="1" as="geometry">
            <mxPoint x="229" y="185" as="sourcePoint" />
            <mxPoint x="670" y="165" as="targetPoint" />
          </mxGeometry>
        </mxCell>
        <mxCell id="mRS_ABq0ETW8iZQ2E5yz-18" value="" style="verticalLabelPosition=bottom;verticalAlign=top;html=1;strokeWidth=4;shape=mxgraph.flowchart.on-page_reference;plain-purple;gradientColor=none;strokeColor=#000000;fillColor=#D5E8D4;" vertex="1" parent="mRS_ABq0ETW8iZQ2E5yz-1">
          <mxGeometry x="550" y="150" width="30" height="30" as="geometry" />
        </mxCell>
        <mxCell id="mRS_ABq0ETW8iZQ2E5yz-19" value="" style="verticalLabelPosition=bottom;verticalAlign=top;html=1;strokeWidth=4;shape=mxgraph.flowchart.on-page_reference;plain-purple;gradientColor=none;strokeColor=#000000;fillColor=#D5E8D4;" vertex="1" parent="mRS_ABq0ETW8iZQ2E5yz-1">
          <mxGeometry x="670" y="150" width="30" height="30" as="geometry" />
        </mxCell>
        <mxCell id="mRS_ABq0ETW8iZQ2E5yz-20" value="" style="edgeStyle=orthogonalEdgeStyle;curved=1;rounded=0;orthogonalLoop=1;jettySize=auto;html=1;endArrow=none;endFill=0;strokeWidth=4;exitX=1;exitY=0.5;exitDx=0;exitDy=0;exitPerimeter=0;" edge="1" parent="mRS_ABq0ETW8iZQ2E5yz-1" source="mRS_ABq0ETW8iZQ2E5yz-24">
          <mxGeometry relative="1" as="geometry">
            <mxPoint x="715" y="164.5" as="sourcePoint" />
            <mxPoint x="1030" y="165" as="targetPoint" />
          </mxGeometry>
        </mxCell>
        <mxCell id="mRS_ABq0ETW8iZQ2E5yz-21" value="" style="verticalLabelPosition=bottom;verticalAlign=top;html=1;strokeWidth=4;shape=mxgraph.flowchart.on-page_reference;strokeColor=#82b366;fillColor=#d5e8d4;" vertex="1" parent="mRS_ABq0ETW8iZQ2E5yz-1">
          <mxGeometry x="880" y="150" width="30" height="30" as="geometry" />
        </mxCell>
        <mxCell id="mRS_ABq0ETW8iZQ2E5yz-22" value="" style="verticalLabelPosition=bottom;verticalAlign=top;html=1;strokeWidth=4;shape=mxgraph.flowchart.on-page_reference;strokeColor=#82b366;fillColor=#d5e8d4;" vertex="1" parent="mRS_ABq0ETW8iZQ2E5yz-1">
          <mxGeometry x="930" y="150" width="30" height="30" as="geometry" />
        </mxCell>
        <mxCell id="mRS_ABq0ETW8iZQ2E5yz-23" value="" style="edgeStyle=orthogonalEdgeStyle;curved=1;rounded=0;orthogonalLoop=1;jettySize=auto;html=1;endArrow=none;endFill=0;strokeWidth=4;exitX=1;exitY=0.5;exitDx=0;exitDy=0;exitPerimeter=0;" edge="1" parent="mRS_ABq0ETW8iZQ2E5yz-1" source="mRS_ABq0ETW8iZQ2E5yz-19" target="mRS_ABq0ETW8iZQ2E5yz-24">
          <mxGeometry relative="1" as="geometry">
            <mxPoint x="700" y="165" as="sourcePoint" />
            <mxPoint x="960" y="165" as="targetPoint" />
          </mxGeometry>
        </mxCell>
        <mxCell id="mRS_ABq0ETW8iZQ2E5yz-24" value="" style="verticalLabelPosition=bottom;verticalAlign=top;html=1;strokeWidth=4;shape=mxgraph.flowchart.on-page_reference;plain-purple;gradientColor=none;strokeColor=#000000;fillColor=#D5E8D4;" vertex="1" parent="mRS_ABq0ETW8iZQ2E5yz-1">
          <mxGeometry x="830" y="150" width="30" height="30" as="geometry" />
        </mxCell>
        <mxCell id="mRS_ABq0ETW8iZQ2E5yz-25" value="" style="verticalLabelPosition=bottom;verticalAlign=top;html=1;strokeWidth=4;shape=mxgraph.flowchart.on-page_reference;strokeColor=#82b366;fillColor=#d5e8d4;" vertex="1" parent="mRS_ABq0ETW8iZQ2E5yz-1">
          <mxGeometry x="780" y="150" width="30" height="30" as="geometry" />
        </mxCell>
        <mxCell id="mRS_ABq0ETW8iZQ2E5yz-26" value="" style="group" vertex="1" connectable="0" parent="mRS_ABq0ETW8iZQ2E5yz-1">
          <mxGeometry x="770" y="140" width="50" height="80" as="geometry" />
        </mxCell>
        <mxCell id="mRS_ABq0ETW8iZQ2E5yz-27" value="" style="group" vertex="1" connectable="0" parent="mRS_ABq0ETW8iZQ2E5yz-26">
          <mxGeometry width="50" height="80" as="geometry" />
        </mxCell>
        <mxCell id="mRS_ABq0ETW8iZQ2E5yz-28" value="" style="rounded=0;whiteSpace=wrap;html=1;fillColor=none;strokeColor=#9673a6;" vertex="1" parent="mRS_ABq0ETW8iZQ2E5yz-27">
          <mxGeometry x="1.7857142857142858" width="46.42857142857143" height="80" as="geometry" />
        </mxCell>
        <mxCell id="mRS_ABq0ETW8iZQ2E5yz-29" value="PR/Mini QA" style="text;html=1;align=center;verticalAlign=middle;whiteSpace=wrap;rounded=0;" vertex="1" parent="mRS_ABq0ETW8iZQ2E5yz-27">
          <mxGeometry y="40" width="50" height="35" as="geometry" />
        </mxCell>
        <mxCell id="mRS_ABq0ETW8iZQ2E5yz-30" value="" style="group" vertex="1" connectable="0" parent="mRS_ABq0ETW8iZQ2E5yz-1">
          <mxGeometry x="870" y="140" width="50" height="80" as="geometry" />
        </mxCell>
        <mxCell id="mRS_ABq0ETW8iZQ2E5yz-31" value="" style="group" vertex="1" connectable="0" parent="mRS_ABq0ETW8iZQ2E5yz-30">
          <mxGeometry width="50" height="80" as="geometry" />
        </mxCell>
        <mxCell id="mRS_ABq0ETW8iZQ2E5yz-32" value="" style="rounded=0;whiteSpace=wrap;html=1;fillColor=none;strokeColor=#9673a6;" vertex="1" parent="mRS_ABq0ETW8iZQ2E5yz-31">
          <mxGeometry x="1.7857142857142858" width="46.42857142857143" height="80" as="geometry" />
        </mxCell>
        <mxCell id="mRS_ABq0ETW8iZQ2E5yz-33" value="PR/Mini QA" style="text;html=1;align=center;verticalAlign=middle;whiteSpace=wrap;rounded=0;" vertex="1" parent="mRS_ABq0ETW8iZQ2E5yz-31">
          <mxGeometry y="40" width="50" height="35" as="geometry" />
        </mxCell>
        <mxCell id="mRS_ABq0ETW8iZQ2E5yz-34" value="" style="group" vertex="1" connectable="0" parent="mRS_ABq0ETW8iZQ2E5yz-1">
          <mxGeometry x="920" y="140" width="50" height="80" as="geometry" />
        </mxCell>
        <mxCell id="mRS_ABq0ETW8iZQ2E5yz-35" value="" style="group" vertex="1" connectable="0" parent="mRS_ABq0ETW8iZQ2E5yz-34">
          <mxGeometry width="50" height="80" as="geometry" />
        </mxCell>
        <mxCell id="mRS_ABq0ETW8iZQ2E5yz-36" value="" style="rounded=0;whiteSpace=wrap;html=1;fillColor=none;strokeColor=#9673a6;" vertex="1" parent="mRS_ABq0ETW8iZQ2E5yz-35">
          <mxGeometry x="1.7857142857142858" width="46.42857142857143" height="80" as="geometry" />
        </mxCell>
        <mxCell id="mRS_ABq0ETW8iZQ2E5yz-37" value="PR/Mini QA" style="text;html=1;align=center;verticalAlign=middle;whiteSpace=wrap;rounded=0;" vertex="1" parent="mRS_ABq0ETW8iZQ2E5yz-35">
          <mxGeometry y="40" width="50" height="35" as="geometry" />
        </mxCell>
        <mxCell id="aw2MFp2JIjSGML0zOu24-0" value="These changes are not reviewed or guaranteed to be correct." style="text;html=1;align=center;verticalAlign=middle;whiteSpace=wrap;rounded=0;fillColor=#f8cecc;strokeColor=#b85450;" vertex="1" parent="mRS_ABq0ETW8iZQ2E5yz-1">
          <mxGeometry x="459" y="330" width="140" height="120" as="geometry" />
        </mxCell>
        <mxCell id="aw2MFp2JIjSGML0zOu24-1" value="" style="shape=flexArrow;endArrow=classic;startArrow=none;html=1;rounded=0;startFill=0;fillColor=#f8cecc;strokeColor=#b85450;" edge="1" parent="mRS_ABq0ETW8iZQ2E5yz-1">
          <mxGeometry width="100" height="100" relative="1" as="geometry">
            <mxPoint x="530" y="330" as="sourcePoint" />
            <mxPoint x="530" y="200" as="targetPoint" />
          </mxGeometry>
        </mxCell>
        <mxCell id="nLrqMjDW48T5Whyn6OWF-0" value="What is being QA&#39;d?" style="text;html=1;align=center;verticalAlign=middle;whiteSpace=wrap;rounded=0;fillColor=#f8cecc;strokeColor=#b85450;" vertex="1" parent="mRS_ABq0ETW8iZQ2E5yz-1">
          <mxGeometry x="615" y="420" width="140" height="120" as="geometry" />
        </mxCell>
        <mxCell id="nLrqMjDW48T5Whyn6OWF-1" value="" style="shape=flexArrow;endArrow=classic;startArrow=none;html=1;rounded=0;startFill=0;fillColor=#f8cecc;strokeColor=#b85450;" edge="1" parent="mRS_ABq0ETW8iZQ2E5yz-1">
          <mxGeometry width="100" height="100" relative="1" as="geometry">
            <mxPoint x="686" y="420" as="sourcePoint" />
            <mxPoint x="686" y="290" as="targetPoint" />
          </mxGeometry>
        </mxCell>
      </root>
    </mxGraphModel>
  </diagram>
  <diagram id="yPxyJZ8AM_hMuL3Unpa9" name="complex gitflow">
    <mxGraphModel dx="1221" dy="815" grid="1" gridSize="10" guides="1" tooltips="1" connect="1" arrows="1" fold="1" page="1" pageScale="1" pageWidth="1100" pageHeight="850" math="0" shadow="0">
      <root>
        <mxCell id="0" />
        <mxCell id="1" parent="0" />
        <mxCell id="uWUnNED6HEl2aK5fdaIb-7" value="Hotfix Commit" style="text;html=1;strokeColor=none;fillColor=none;align=center;verticalAlign=middle;whiteSpace=wrap;overflow=hidden;" parent="1" vertex="1">
          <mxGeometry x="427.25" y="226" width="80" height="30" as="geometry" />
        </mxCell>
        <mxCell id="uWUnNED6HEl2aK5fdaIb-8" value="" style="edgeStyle=orthogonalEdgeStyle;rounded=0;html=1;jettySize=auto;orthogonalLoop=1;plain-blue;endArrow=none;endFill=0;strokeWidth=4;strokeColor=#000000;entryX=0;entryY=0.5;entryDx=0;entryDy=0;entryPerimeter=0;" parent="1" source="uWUnNED6HEl2aK5fdaIb-10" target="9hBKPDzoitwpIBdzFDQ7-16" edge="1">
          <mxGeometry x="292.25" y="211" as="geometry">
            <mxPoint x="442.25" y="211" as="targetPoint" />
          </mxGeometry>
        </mxCell>
        <mxCell id="uWUnNED6HEl2aK5fdaIb-9" style="edgeStyle=orthogonalEdgeStyle;curved=1;rounded=0;html=1;exitX=1;exitY=0.5;exitPerimeter=0;entryX=0;entryY=0.5;entryPerimeter=0;endArrow=none;endFill=0;jettySize=auto;orthogonalLoop=1;strokeWidth=4;fontSize=15;" parent="1" source="uWUnNED6HEl2aK5fdaIb-10" target="uWUnNED6HEl2aK5fdaIb-15" edge="1">
          <mxGeometry relative="1" as="geometry" />
        </mxCell>
        <mxCell id="uWUnNED6HEl2aK5fdaIb-10" value="" style="verticalLabelPosition=bottom;verticalAlign=top;html=1;strokeWidth=4;shape=mxgraph.flowchart.on-page_reference;plain-blue;gradientColor=none;fillColor=#B5E3Fe;strokeColor=#000000;" parent="1" vertex="1">
          <mxGeometry x="262.25" y="196" width="30" height="30" as="geometry" />
        </mxCell>
        <mxCell id="uWUnNED6HEl2aK5fdaIb-80" value="" style="edgeStyle=orthogonalEdgeStyle;curved=1;rounded=0;orthogonalLoop=1;jettySize=auto;html=1;endArrow=none;endFill=0;strokeWidth=4;entryX=0;entryY=0.5;entryDx=0;entryDy=0;entryPerimeter=0;" parent="1" source="uWUnNED6HEl2aK5fdaIb-11" target="uWUnNED6HEl2aK5fdaIb-109" edge="1">
          <mxGeometry relative="1" as="geometry">
            <mxPoint x="734.4999999999995" y="211" as="targetPoint" />
          </mxGeometry>
        </mxCell>
        <mxCell id="uWUnNED6HEl2aK5fdaIb-105" style="edgeStyle=orthogonalEdgeStyle;curved=1;rounded=0;orthogonalLoop=1;jettySize=auto;html=1;exitX=1;exitY=0.5;exitDx=0;exitDy=0;exitPerimeter=0;entryX=0;entryY=0.5;entryDx=0;entryDy=0;entryPerimeter=0;endArrow=none;endFill=0;strokeWidth=4;fontFamily=Courier New;fontColor=#009900;" parent="1" source="uWUnNED6HEl2aK5fdaIb-11" target="uWUnNED6HEl2aK5fdaIb-104" edge="1">
          <mxGeometry relative="1" as="geometry" />
        </mxCell>
        <mxCell id="uWUnNED6HEl2aK5fdaIb-11" value="" style="verticalLabelPosition=bottom;verticalAlign=top;html=1;strokeWidth=4;shape=mxgraph.flowchart.on-page_reference;plain-blue;gradientColor=none;strokeColor=#000000;fillColor=#B5E3FE;" parent="1" vertex="1">
          <mxGeometry x="622.25" y="196" width="30" height="30" as="geometry" />
        </mxCell>
        <mxCell id="uWUnNED6HEl2aK5fdaIb-109" value="" style="verticalLabelPosition=bottom;verticalAlign=top;html=1;strokeWidth=4;shape=mxgraph.flowchart.on-page_reference;plain-blue;gradientColor=none;strokeColor=#33001A;fillColor=#B5E3FE;" parent="1" vertex="1">
          <mxGeometry x="861.25" y="196" width="30" height="30" as="geometry" />
        </mxCell>
        <mxCell id="uWUnNED6HEl2aK5fdaIb-12" value="" style="edgeStyle=orthogonalEdgeStyle;rounded=0;html=1;jettySize=auto;orthogonalLoop=1;strokeWidth=4;endArrow=none;endFill=0;" parent="1" target="uWUnNED6HEl2aK5fdaIb-10" edge="1">
          <mxGeometry x="192.25" y="211" as="geometry">
            <mxPoint x="150" y="211" as="sourcePoint" />
          </mxGeometry>
        </mxCell>
        <mxCell id="uWUnNED6HEl2aK5fdaIb-13" value="main" style="text;html=1;strokeColor=none;fillColor=none;align=center;verticalAlign=middle;whiteSpace=wrap;overflow=hidden;fontSize=14;fontStyle=1;fontFamily=Courier New;" parent="1" vertex="1">
          <mxGeometry x="83" y="190" width="50" height="42" as="geometry" />
        </mxCell>
        <mxCell id="uWUnNED6HEl2aK5fdaIb-14" style="edgeStyle=orthogonalEdgeStyle;curved=1;rounded=0;html=1;exitX=1;exitY=0.5;exitPerimeter=0;endArrow=none;endFill=0;jettySize=auto;orthogonalLoop=1;strokeWidth=4;fontSize=15;" parent="1" source="uWUnNED6HEl2aK5fdaIb-15" target="uWUnNED6HEl2aK5fdaIb-17" edge="1">
          <mxGeometry relative="1" as="geometry" />
        </mxCell>
        <mxCell id="uWUnNED6HEl2aK5fdaIb-15" value="" style="verticalLabelPosition=bottom;verticalAlign=top;html=1;strokeWidth=4;shape=mxgraph.flowchart.on-page_reference;plain-purple;gradientColor=none;strokeColor=#000000;fillColor=#D5E8D4;" parent="1" vertex="1">
          <mxGeometry x="339.75" y="281" width="30" height="30" as="geometry" />
        </mxCell>
        <mxCell id="uWUnNED6HEl2aK5fdaIb-16" style="edgeStyle=orthogonalEdgeStyle;curved=1;rounded=0;html=1;exitX=1;exitY=0.5;exitPerimeter=0;entryX=0;entryY=0.5;entryPerimeter=0;endArrow=none;endFill=0;jettySize=auto;orthogonalLoop=1;strokeWidth=4;fontSize=15;" parent="1" source="uWUnNED6HEl2aK5fdaIb-17" target="uWUnNED6HEl2aK5fdaIb-19" edge="1">
          <mxGeometry relative="1" as="geometry" />
        </mxCell>
        <mxCell id="uWUnNED6HEl2aK5fdaIb-17" value="" style="verticalLabelPosition=bottom;verticalAlign=top;html=1;strokeWidth=4;shape=mxgraph.flowchart.on-page_reference;plain-purple;gradientColor=none;strokeColor=#000000;fillColor=#D5E8D4;" parent="1" vertex="1">
          <mxGeometry x="446.75" y="281" width="30" height="30" as="geometry" />
        </mxCell>
        <mxCell id="uWUnNED6HEl2aK5fdaIb-18" style="edgeStyle=orthogonalEdgeStyle;curved=1;rounded=0;html=1;exitX=1;exitY=0.5;exitPerimeter=0;entryX=0;entryY=0.5;entryPerimeter=0;endArrow=none;endFill=0;jettySize=auto;orthogonalLoop=1;strokeWidth=4;fontSize=15;" parent="1" source="uWUnNED6HEl2aK5fdaIb-19" target="uWUnNED6HEl2aK5fdaIb-11" edge="1">
          <mxGeometry relative="1" as="geometry" />
        </mxCell>
        <mxCell id="uWUnNED6HEl2aK5fdaIb-19" value="" style="verticalLabelPosition=bottom;verticalAlign=top;html=1;strokeWidth=4;shape=mxgraph.flowchart.on-page_reference;plain-purple;gradientColor=none;strokeColor=#000000;fillColor=#D5E8D4;" parent="1" vertex="1">
          <mxGeometry x="549.75" y="281" width="30" height="30" as="geometry" />
        </mxCell>
        <mxCell id="uWUnNED6HEl2aK5fdaIb-20" value="release" style="text;html=1;strokeColor=none;fillColor=none;align=left;verticalAlign=middle;whiteSpace=wrap;overflow=hidden;fontSize=14;fontStyle=1;fontFamily=Courier New;" parent="1" vertex="1">
          <mxGeometry x="88.75" y="286" width="240" height="20" as="geometry" />
        </mxCell>
        <mxCell id="uWUnNED6HEl2aK5fdaIb-71" value="" style="edgeStyle=orthogonalEdgeStyle;rounded=0;orthogonalLoop=1;jettySize=auto;html=1;endArrow=none;endFill=0;strokeWidth=4;" parent="1" source="uWUnNED6HEl2aK5fdaIb-69" target="uWUnNED6HEl2aK5fdaIb-70" edge="1">
          <mxGeometry relative="1" as="geometry" />
        </mxCell>
        <mxCell id="uWUnNED6HEl2aK5fdaIb-75" style="edgeStyle=orthogonalEdgeStyle;rounded=0;orthogonalLoop=1;jettySize=auto;html=1;entryX=1;entryY=0.5;entryDx=0;entryDy=0;entryPerimeter=0;endArrow=none;endFill=0;strokeWidth=4;curved=1;" parent="1" source="uWUnNED6HEl2aK5fdaIb-69" target="uWUnNED6HEl2aK5fdaIb-15" edge="1">
          <mxGeometry relative="1" as="geometry" />
        </mxCell>
        <mxCell id="uWUnNED6HEl2aK5fdaIb-94" style="edgeStyle=orthogonalEdgeStyle;curved=1;rounded=0;orthogonalLoop=1;jettySize=auto;html=1;exitX=1;exitY=0.5;exitDx=0;exitDy=0;exitPerimeter=0;entryX=0;entryY=0.5;entryDx=0;entryDy=0;entryPerimeter=0;endArrow=none;endFill=0;strokeWidth=4;fontFamily=Courier New;fontColor=#009900;" parent="1" source="uWUnNED6HEl2aK5fdaIb-69" target="uWUnNED6HEl2aK5fdaIb-82" edge="1">
          <mxGeometry relative="1" as="geometry" />
        </mxCell>
        <mxCell id="uWUnNED6HEl2aK5fdaIb-69" value="" style="verticalLabelPosition=bottom;verticalAlign=top;html=1;strokeWidth=4;shape=mxgraph.flowchart.on-page_reference;plain-purple;gradientColor=none;strokeColor=#000000;fillColor=#D5E8D4;" parent="1" vertex="1">
          <mxGeometry x="416.75" y="361" width="30" height="30" as="geometry" />
        </mxCell>
        <mxCell id="uWUnNED6HEl2aK5fdaIb-78" value="" style="edgeStyle=orthogonalEdgeStyle;curved=1;rounded=0;orthogonalLoop=1;jettySize=auto;html=1;endArrow=none;endFill=0;strokeWidth=4;" parent="1" source="uWUnNED6HEl2aK5fdaIb-70" target="uWUnNED6HEl2aK5fdaIb-77" edge="1">
          <mxGeometry relative="1" as="geometry" />
        </mxCell>
        <mxCell id="uWUnNED6HEl2aK5fdaIb-70" value="" style="verticalLabelPosition=bottom;verticalAlign=top;html=1;strokeWidth=4;shape=mxgraph.flowchart.on-page_reference;plain-purple;gradientColor=none;strokeColor=#000000;fillColor=#D5E8D4;" parent="1" vertex="1">
          <mxGeometry x="514.75" y="361" width="30" height="30" as="geometry" />
        </mxCell>
        <mxCell id="uWUnNED6HEl2aK5fdaIb-96" value="" style="edgeStyle=orthogonalEdgeStyle;curved=1;rounded=0;orthogonalLoop=1;jettySize=auto;html=1;endArrow=none;endFill=0;strokeWidth=4;fontFamily=Courier New;fontColor=#009900;" parent="1" source="uWUnNED6HEl2aK5fdaIb-77" target="uWUnNED6HEl2aK5fdaIb-95" edge="1">
          <mxGeometry relative="1" as="geometry" />
        </mxCell>
        <mxCell id="uWUnNED6HEl2aK5fdaIb-77" value="" style="verticalLabelPosition=bottom;verticalAlign=top;html=1;strokeWidth=4;shape=mxgraph.flowchart.on-page_reference;plain-purple;gradientColor=none;strokeColor=#000000;fillColor=#D5E8D4;" parent="1" vertex="1">
          <mxGeometry x="594.75" y="361" width="30" height="30" as="geometry" />
        </mxCell>
        <mxCell id="uWUnNED6HEl2aK5fdaIb-108" style="edgeStyle=orthogonalEdgeStyle;curved=1;rounded=0;orthogonalLoop=1;jettySize=auto;html=1;entryX=0;entryY=0.5;entryDx=0;entryDy=0;entryPerimeter=0;endArrow=none;endFill=0;strokeWidth=4;fontFamily=Courier New;fontColor=#009900;" parent="1" source="uWUnNED6HEl2aK5fdaIb-95" target="uWUnNED6HEl2aK5fdaIb-106" edge="1">
          <mxGeometry relative="1" as="geometry" />
        </mxCell>
        <mxCell id="uWUnNED6HEl2aK5fdaIb-95" value="" style="verticalLabelPosition=bottom;verticalAlign=top;html=1;strokeWidth=4;shape=mxgraph.flowchart.on-page_reference;plain-purple;gradientColor=none;strokeColor=#000000;fillColor=#D5E8D4;" parent="1" vertex="1">
          <mxGeometry x="696.75" y="361" width="30" height="30" as="geometry" />
        </mxCell>
        <mxCell id="uWUnNED6HEl2aK5fdaIb-76" value="develop" style="text;html=1;strokeColor=none;fillColor=none;align=left;verticalAlign=middle;whiteSpace=wrap;overflow=hidden;fontSize=14;fontStyle=1;fontFamily=Courier New;" parent="1" vertex="1">
          <mxGeometry x="87.75" y="364" width="91" height="20" as="geometry" />
        </mxCell>
        <mxCell id="uWUnNED6HEl2aK5fdaIb-81" value="" style="edgeStyle=orthogonalEdgeStyle;rounded=0;orthogonalLoop=1;jettySize=auto;html=1;endArrow=none;endFill=0;strokeWidth=4;" parent="1" source="uWUnNED6HEl2aK5fdaIb-82" target="uWUnNED6HEl2aK5fdaIb-84" edge="1">
          <mxGeometry relative="1" as="geometry" />
        </mxCell>
        <mxCell id="uWUnNED6HEl2aK5fdaIb-82" value="" style="verticalLabelPosition=bottom;verticalAlign=top;html=1;strokeWidth=4;shape=mxgraph.flowchart.on-page_reference;plain-purple;gradientColor=none;strokeColor=#000000;fillColor=#D5E8D4;" parent="1" vertex="1">
          <mxGeometry x="500.75" y="440" width="30" height="30" as="geometry" />
        </mxCell>
        <mxCell id="uWUnNED6HEl2aK5fdaIb-97" style="edgeStyle=orthogonalEdgeStyle;curved=1;rounded=0;orthogonalLoop=1;jettySize=auto;html=1;exitX=1;exitY=0.5;exitDx=0;exitDy=0;exitPerimeter=0;entryX=0;entryY=0.5;entryDx=0;entryDy=0;entryPerimeter=0;endArrow=none;endFill=0;strokeWidth=4;fontFamily=Courier New;fontColor=#009900;" parent="1" source="uWUnNED6HEl2aK5fdaIb-84" target="uWUnNED6HEl2aK5fdaIb-95" edge="1">
          <mxGeometry relative="1" as="geometry" />
        </mxCell>
        <mxCell id="uWUnNED6HEl2aK5fdaIb-84" value="" style="verticalLabelPosition=bottom;verticalAlign=top;html=1;strokeWidth=4;shape=mxgraph.flowchart.on-page_reference;plain-purple;gradientColor=none;strokeColor=#000000;fillColor=#D5E8D4;" parent="1" vertex="1">
          <mxGeometry x="611.75" y="440" width="30" height="30" as="geometry" />
        </mxCell>
        <mxCell id="uWUnNED6HEl2aK5fdaIb-86" value="feature" style="text;html=1;strokeColor=none;fillColor=none;align=left;verticalAlign=middle;whiteSpace=wrap;overflow=hidden;fontSize=14;fontStyle=1;fontFamily=Courier New;" parent="1" vertex="1">
          <mxGeometry x="87.5" y="445" width="240" height="20" as="geometry" />
        </mxCell>
        <mxCell id="uWUnNED6HEl2aK5fdaIb-87" value="The development or sprint branch" style="text;html=1;strokeColor=none;fillColor=none;align=left;verticalAlign=middle;whiteSpace=wrap;overflow=hidden;fontSize=14;fontStyle=0;fontColor=#009900;" parent="1" vertex="1">
          <mxGeometry x="85.75" y="384" width="240" height="20" as="geometry" />
        </mxCell>
        <mxCell id="uWUnNED6HEl2aK5fdaIb-88" value="Your feature branch" style="text;html=1;strokeColor=none;fillColor=none;align=left;verticalAlign=middle;whiteSpace=wrap;overflow=hidden;fontSize=14;fontStyle=0;fontColor=#009900;" parent="1" vertex="1">
          <mxGeometry x="85.75" y="465" width="240" height="20" as="geometry" />
        </mxCell>
        <mxCell id="uWUnNED6HEl2aK5fdaIb-89" value="The release branch" style="text;html=1;strokeColor=none;fillColor=none;align=left;verticalAlign=middle;whiteSpace=wrap;overflow=hidden;fontSize=14;fontStyle=0;fontColor=#009900;" parent="1" vertex="1">
          <mxGeometry x="86.75" y="306" width="240" height="20" as="geometry" />
        </mxCell>
        <mxCell id="uWUnNED6HEl2aK5fdaIb-90" value="The main branch&lt;br&gt;" style="text;html=1;strokeColor=none;fillColor=none;align=left;verticalAlign=middle;whiteSpace=wrap;overflow=hidden;fontSize=14;fontStyle=0;fontColor=#009900;" parent="1" vertex="1">
          <mxGeometry x="88.25" y="220" width="146.75" height="20" as="geometry" />
        </mxCell>
        <mxCell id="uWUnNED6HEl2aK5fdaIb-91" value="" style="endArrow=classic;html=1;strokeWidth=1;fontFamily=Courier New;fontColor=#009900;" parent="1" edge="1">
          <mxGeometry width="50" height="50" relative="1" as="geometry">
            <mxPoint x="306.75" y="454.5" as="sourcePoint" />
            <mxPoint x="456.75" y="455" as="targetPoint" />
          </mxGeometry>
        </mxCell>
        <mxCell id="uWUnNED6HEl2aK5fdaIb-92" value="" style="endArrow=classic;html=1;strokeWidth=1;fontFamily=Courier New;fontColor=#009900;" parent="1" edge="1">
          <mxGeometry width="50" height="50" relative="1" as="geometry">
            <mxPoint x="186.75" y="374" as="sourcePoint" />
            <mxPoint x="376.75" y="374" as="targetPoint" />
          </mxGeometry>
        </mxCell>
        <mxCell id="uWUnNED6HEl2aK5fdaIb-93" value="" style="endArrow=classic;html=1;strokeWidth=1;fontFamily=Courier New;fontColor=#009900;" parent="1" edge="1">
          <mxGeometry width="50" height="50" relative="1" as="geometry">
            <mxPoint x="216.75" y="296" as="sourcePoint" />
            <mxPoint x="296.75" y="296" as="targetPoint" />
          </mxGeometry>
        </mxCell>
        <mxCell id="uWUnNED6HEl2aK5fdaIb-101" value="Tag: 1.1.0" style="text;html=1;strokeColor=none;fillColor=none;align=center;verticalAlign=middle;whiteSpace=wrap;overflow=hidden;fontSize=14;" parent="1" vertex="1">
          <mxGeometry x="590.25" y="170" width="110" height="20" as="geometry" />
        </mxCell>
        <mxCell id="uWUnNED6HEl2aK5fdaIb-103" value="Tag: 1.0.0" style="text;html=1;strokeColor=none;fillColor=none;align=center;verticalAlign=middle;whiteSpace=wrap;overflow=hidden;fontSize=14;" parent="1" vertex="1">
          <mxGeometry x="242.25" y="170" width="70" height="20" as="geometry" />
        </mxCell>
        <mxCell id="uWUnNED6HEl2aK5fdaIb-107" value="" style="edgeStyle=orthogonalEdgeStyle;curved=1;rounded=0;orthogonalLoop=1;jettySize=auto;html=1;endArrow=none;endFill=0;strokeWidth=4;fontFamily=Courier New;fontColor=#009900;" parent="1" source="uWUnNED6HEl2aK5fdaIb-104" target="uWUnNED6HEl2aK5fdaIb-106" edge="1">
          <mxGeometry relative="1" as="geometry" />
        </mxCell>
        <mxCell id="uWUnNED6HEl2aK5fdaIb-104" value="" style="verticalLabelPosition=bottom;verticalAlign=top;html=1;strokeWidth=4;shape=mxgraph.flowchart.on-page_reference;plain-purple;gradientColor=none;strokeColor=#000000;fillColor=#D5E8D4;" parent="1" vertex="1">
          <mxGeometry x="696.75" y="281" width="30" height="30" as="geometry" />
        </mxCell>
        <mxCell id="uWUnNED6HEl2aK5fdaIb-115" style="edgeStyle=orthogonalEdgeStyle;curved=1;rounded=0;orthogonalLoop=1;jettySize=auto;html=1;entryX=0;entryY=0.5;entryDx=0;entryDy=0;entryPerimeter=0;endArrow=none;endFill=0;strokeWidth=4;fontFamily=Courier New;fontColor=#009900;" parent="1" source="uWUnNED6HEl2aK5fdaIb-106" target="uWUnNED6HEl2aK5fdaIb-109" edge="1">
          <mxGeometry relative="1" as="geometry" />
        </mxCell>
        <mxCell id="uWUnNED6HEl2aK5fdaIb-106" value="" style="verticalLabelPosition=bottom;verticalAlign=top;html=1;strokeWidth=4;shape=mxgraph.flowchart.on-page_reference;plain-purple;gradientColor=none;strokeColor=#000000;fillColor=#D5E8D4;" parent="1" vertex="1">
          <mxGeometry x="786.75" y="281" width="30" height="30" as="geometry" />
        </mxCell>
        <mxCell id="uWUnNED6HEl2aK5fdaIb-116" value="Tag: 1.2.0" style="text;html=1;strokeColor=none;fillColor=none;align=center;verticalAlign=middle;whiteSpace=wrap;overflow=hidden;fontSize=14;" parent="1" vertex="1">
          <mxGeometry x="812.25" y="168" width="110" height="20" as="geometry" />
        </mxCell>
        <mxCell id="fSnZ5vnYTslC5NarKmr_-9" value="" style="edgeStyle=orthogonalEdgeStyle;rounded=0;orthogonalLoop=1;jettySize=auto;html=1;fontSize=12;fontColor=#000000;entryX=0;entryY=0.5;entryDx=0;entryDy=0;" parent="1" source="fSnZ5vnYTslC5NarKmr_-8" target="uWUnNED6HEl2aK5fdaIb-103" edge="1">
          <mxGeometry relative="1" as="geometry">
            <mxPoint x="222.25" y="180" as="targetPoint" />
            <Array as="points">
              <mxPoint x="222.25" y="180" />
              <mxPoint x="222.25" y="180" />
            </Array>
          </mxGeometry>
        </mxCell>
        <mxCell id="fSnZ5vnYTslC5NarKmr_-8" value="&lt;span style=&quot;text-align: center; font-size: 11px;&quot;&gt;Each tag represents a production release.&lt;/span&gt;" style="text;html=1;strokeColor=none;fillColor=none;align=left;verticalAlign=middle;whiteSpace=wrap;overflow=hidden;fontSize=11;fontStyle=0;fontColor=#000000;" parent="1" vertex="1">
          <mxGeometry x="94.5" y="158" width="120" height="38" as="geometry" />
        </mxCell>
        <UserObject label="&lt;a href=&quot;https://nvie.com/posts/a-successful-git-branching-model/&quot;&gt;https://nvie.com/posts/a-successful-git-branching-model/&lt;/a&gt;" link="https://nvie.com/posts/a-successful-git-branching-model/" id="9hBKPDzoitwpIBdzFDQ7-3">
          <mxCell style="text;whiteSpace=wrap;html=1;" parent="1" vertex="1">
            <mxGeometry x="115" y="115" width="355" height="20" as="geometry" />
          </mxCell>
        </UserObject>
        <UserObject label="See:" link="https://nvie.com/posts/a-successful-git-branching-model/" id="9hBKPDzoitwpIBdzFDQ7-7">
          <mxCell style="text;whiteSpace=wrap;html=1;" parent="1" vertex="1">
            <mxGeometry x="82.25" y="115" width="32.75" height="20" as="geometry" />
          </mxCell>
        </UserObject>
        <mxCell id="9hBKPDzoitwpIBdzFDQ7-21" value="" style="edgeStyle=orthogonalEdgeStyle;rounded=0;orthogonalLoop=1;jettySize=auto;html=1;fontSize=15;endArrow=none;endFill=0;strokeWidth=4;entryX=0;entryY=0.5;entryDx=0;entryDy=0;entryPerimeter=0;" parent="1" source="9hBKPDzoitwpIBdzFDQ7-16" target="uWUnNED6HEl2aK5fdaIb-11" edge="1">
          <mxGeometry relative="1" as="geometry">
            <mxPoint x="560.25" y="211" as="targetPoint" />
          </mxGeometry>
        </mxCell>
        <mxCell id="9hBKPDzoitwpIBdzFDQ7-16" value="" style="verticalLabelPosition=bottom;verticalAlign=top;html=1;strokeWidth=4;shape=mxgraph.flowchart.on-page_reference;plain-blue;gradientColor=#EA6B66;strokeColor=#B85450;fillColor=#F8CECC;" parent="1" vertex="1">
          <mxGeometry x="452.25" y="196" width="30" height="30" as="geometry" />
        </mxCell>
        <mxCell id="9hBKPDzoitwpIBdzFDQ7-61" value="Tag: 1.0.1" style="text;html=1;strokeColor=none;fillColor=none;align=center;verticalAlign=middle;whiteSpace=wrap;overflow=hidden;fontSize=14;" parent="1" vertex="1">
          <mxGeometry x="428.5" y="170" width="70" height="20" as="geometry" />
        </mxCell>
        <mxCell id="Mm9G2QBTWImACJ4SZJIi-1" value="Not Quite." style="text;html=1;align=center;verticalAlign=middle;whiteSpace=wrap;rounded=0;fillColor=#f8cecc;strokeColor=#b85450;" vertex="1" parent="1">
          <mxGeometry x="820" y="520" width="80" height="50" as="geometry" />
        </mxCell>
        <mxCell id="Mm9G2QBTWImACJ4SZJIi-2" value="" style="ellipse;whiteSpace=wrap;html=1;aspect=fixed;fillColor=none;strokeColor=#FF0000;fontColor=#ffffff;strokeWidth=5;" vertex="1" parent="1">
          <mxGeometry x="671.75" y="345" width="80" height="80" as="geometry" />
        </mxCell>
        <mxCell id="Mm9G2QBTWImACJ4SZJIi-3" value="" style="curved=1;endArrow=classic;html=1;rounded=0;entryX=0.728;entryY=0.563;entryDx=0;entryDy=0;exitX=0.5;exitY=0;exitDx=0;exitDy=0;entryPerimeter=0;" edge="1" parent="1" source="Mm9G2QBTWImACJ4SZJIi-1" target="Mm9G2QBTWImACJ4SZJIi-2">
          <mxGeometry width="50" height="50" relative="1" as="geometry">
            <mxPoint x="520" y="440" as="sourcePoint" />
            <mxPoint x="570" y="390" as="targetPoint" />
            <Array as="points">
              <mxPoint x="850" y="490" />
              <mxPoint x="800" y="430" />
            </Array>
          </mxGeometry>
        </mxCell>
        <mxCell id="yduV1vGoFC7ncSc433bC-1" value="Reference" style="text;html=1;align=center;verticalAlign=middle;whiteSpace=wrap;rounded=0;fontSize=21;" vertex="1" parent="1">
          <mxGeometry x="476.75" y="30" width="60" height="30" as="geometry" />
        </mxCell>
      </root>
    </mxGraphModel>
  </diagram>
  <diagram name="Feature Merge" id="W-f-v-ca46T2AkDdw06o">
    <mxGraphModel dx="1221" dy="815" grid="1" gridSize="10" guides="1" tooltips="1" connect="1" arrows="1" fold="1" page="1" pageScale="1" pageWidth="1100" pageHeight="850" math="0" shadow="0">
      <root>
        <mxCell id="FV8Ikgj9Xe0BQtX1Jbdk-0" />
        <mxCell id="FV8Ikgj9Xe0BQtX1Jbdk-1" parent="FV8Ikgj9Xe0BQtX1Jbdk-0" />
        <mxCell id="FV8Ikgj9Xe0BQtX1Jbdk-19" value="" style="edgeStyle=orthogonalEdgeStyle;rounded=0;orthogonalLoop=1;jettySize=auto;html=1;endArrow=none;endFill=0;strokeWidth=4;" edge="1" parent="FV8Ikgj9Xe0BQtX1Jbdk-1" source="FV8Ikgj9Xe0BQtX1Jbdk-22" target="FV8Ikgj9Xe0BQtX1Jbdk-24">
          <mxGeometry relative="1" as="geometry" />
        </mxCell>
        <mxCell id="FV8Ikgj9Xe0BQtX1Jbdk-21" style="edgeStyle=orthogonalEdgeStyle;curved=1;rounded=0;orthogonalLoop=1;jettySize=auto;html=1;exitX=1;exitY=0.5;exitDx=0;exitDy=0;exitPerimeter=0;entryX=0;entryY=0.5;entryDx=0;entryDy=0;entryPerimeter=0;endArrow=none;endFill=0;strokeWidth=4;fontFamily=Courier New;fontColor=#009900;" edge="1" parent="FV8Ikgj9Xe0BQtX1Jbdk-1" source="FV8Ikgj9Xe0BQtX1Jbdk-22" target="FV8Ikgj9Xe0BQtX1Jbdk-31">
          <mxGeometry relative="1" as="geometry" />
        </mxCell>
        <mxCell id="FV8Ikgj9Xe0BQtX1Jbdk-22" value="" style="verticalLabelPosition=bottom;verticalAlign=top;html=1;strokeWidth=4;shape=mxgraph.flowchart.on-page_reference;plain-purple;gradientColor=none;strokeColor=#000000;fillColor=#D5E8D4;" vertex="1" parent="FV8Ikgj9Xe0BQtX1Jbdk-1">
          <mxGeometry x="381" y="150" width="30" height="30" as="geometry" />
        </mxCell>
        <mxCell id="FV8Ikgj9Xe0BQtX1Jbdk-23" value="" style="edgeStyle=orthogonalEdgeStyle;curved=1;rounded=0;orthogonalLoop=1;jettySize=auto;html=1;endArrow=none;endFill=0;strokeWidth=4;" edge="1" parent="FV8Ikgj9Xe0BQtX1Jbdk-1" source="FV8Ikgj9Xe0BQtX1Jbdk-24" target="FV8Ikgj9Xe0BQtX1Jbdk-26">
          <mxGeometry relative="1" as="geometry" />
        </mxCell>
        <mxCell id="FV8Ikgj9Xe0BQtX1Jbdk-24" value="" style="verticalLabelPosition=bottom;verticalAlign=top;html=1;strokeWidth=4;shape=mxgraph.flowchart.on-page_reference;plain-purple;gradientColor=none;strokeColor=#000000;fillColor=#D5E8D4;" vertex="1" parent="FV8Ikgj9Xe0BQtX1Jbdk-1">
          <mxGeometry x="479" y="150" width="30" height="30" as="geometry" />
        </mxCell>
        <mxCell id="FV8Ikgj9Xe0BQtX1Jbdk-25" value="" style="edgeStyle=orthogonalEdgeStyle;curved=1;rounded=0;orthogonalLoop=1;jettySize=auto;html=1;endArrow=none;endFill=0;strokeWidth=4;fontFamily=Courier New;fontColor=#009900;" edge="1" parent="FV8Ikgj9Xe0BQtX1Jbdk-1" source="FV8Ikgj9Xe0BQtX1Jbdk-26" target="FV8Ikgj9Xe0BQtX1Jbdk-28">
          <mxGeometry relative="1" as="geometry" />
        </mxCell>
        <mxCell id="FV8Ikgj9Xe0BQtX1Jbdk-26" value="" style="verticalLabelPosition=bottom;verticalAlign=top;html=1;strokeWidth=4;shape=mxgraph.flowchart.on-page_reference;plain-purple;gradientColor=none;strokeColor=#000000;fillColor=#D5E8D4;" vertex="1" parent="FV8Ikgj9Xe0BQtX1Jbdk-1">
          <mxGeometry x="559" y="150" width="30" height="30" as="geometry" />
        </mxCell>
        <mxCell id="FV8Ikgj9Xe0BQtX1Jbdk-28" value="" style="verticalLabelPosition=bottom;verticalAlign=top;html=1;strokeWidth=4;shape=mxgraph.flowchart.on-page_reference;strokeColor=#b85450;fillColor=#f8cecc;" vertex="1" parent="FV8Ikgj9Xe0BQtX1Jbdk-1">
          <mxGeometry x="770" y="150" width="30" height="30" as="geometry" />
        </mxCell>
        <mxCell id="FV8Ikgj9Xe0BQtX1Jbdk-29" value="develop" style="text;html=1;strokeColor=none;fillColor=none;align=left;verticalAlign=middle;whiteSpace=wrap;overflow=hidden;fontSize=14;fontStyle=1;fontFamily=Courier New;" vertex="1" parent="FV8Ikgj9Xe0BQtX1Jbdk-1">
          <mxGeometry x="52" y="153" width="91" height="20" as="geometry" />
        </mxCell>
        <mxCell id="FV8Ikgj9Xe0BQtX1Jbdk-30" value="" style="edgeStyle=orthogonalEdgeStyle;rounded=0;orthogonalLoop=1;jettySize=auto;html=1;endArrow=none;endFill=0;strokeWidth=4;" edge="1" parent="FV8Ikgj9Xe0BQtX1Jbdk-1" source="FV8Ikgj9Xe0BQtX1Jbdk-31" target="FV8Ikgj9Xe0BQtX1Jbdk-33">
          <mxGeometry relative="1" as="geometry" />
        </mxCell>
        <mxCell id="FV8Ikgj9Xe0BQtX1Jbdk-31" value="" style="verticalLabelPosition=bottom;verticalAlign=top;html=1;strokeWidth=4;shape=mxgraph.flowchart.on-page_reference;plain-purple;gradientColor=none;strokeColor=#000000;fillColor=#D5E8D4;" vertex="1" parent="FV8Ikgj9Xe0BQtX1Jbdk-1">
          <mxGeometry x="465" y="229" width="30" height="30" as="geometry" />
        </mxCell>
        <mxCell id="FV8Ikgj9Xe0BQtX1Jbdk-33" value="" style="verticalLabelPosition=bottom;verticalAlign=top;html=1;strokeWidth=4;shape=mxgraph.flowchart.on-page_reference;plain-purple;gradientColor=none;strokeColor=#000000;fillColor=#D5E8D4;" vertex="1" parent="FV8Ikgj9Xe0BQtX1Jbdk-1">
          <mxGeometry x="550" y="229" width="30" height="30" as="geometry" />
        </mxCell>
        <mxCell id="FV8Ikgj9Xe0BQtX1Jbdk-34" value="feature" style="text;html=1;strokeColor=none;fillColor=none;align=left;verticalAlign=middle;whiteSpace=wrap;overflow=hidden;fontSize=14;fontStyle=1;fontFamily=Courier New;" vertex="1" parent="FV8Ikgj9Xe0BQtX1Jbdk-1">
          <mxGeometry x="51.75" y="234" width="240" height="20" as="geometry" />
        </mxCell>
        <mxCell id="FV8Ikgj9Xe0BQtX1Jbdk-35" value="The development or sprint branch" style="text;html=1;strokeColor=none;fillColor=none;align=left;verticalAlign=middle;whiteSpace=wrap;overflow=hidden;fontSize=14;fontStyle=0;fontColor=#009900;" vertex="1" parent="FV8Ikgj9Xe0BQtX1Jbdk-1">
          <mxGeometry x="50" y="173" width="240" height="20" as="geometry" />
        </mxCell>
        <mxCell id="FV8Ikgj9Xe0BQtX1Jbdk-36" value="Your feature branch" style="text;html=1;strokeColor=none;fillColor=none;align=left;verticalAlign=middle;whiteSpace=wrap;overflow=hidden;fontSize=14;fontStyle=0;fontColor=#009900;" vertex="1" parent="FV8Ikgj9Xe0BQtX1Jbdk-1">
          <mxGeometry x="50" y="254" width="240" height="20" as="geometry" />
        </mxCell>
        <mxCell id="FV8Ikgj9Xe0BQtX1Jbdk-39" value="" style="endArrow=classic;html=1;strokeWidth=1;fontFamily=Courier New;fontColor=#009900;" edge="1" parent="FV8Ikgj9Xe0BQtX1Jbdk-1">
          <mxGeometry width="50" height="50" relative="1" as="geometry">
            <mxPoint x="271" y="243.5" as="sourcePoint" />
            <mxPoint x="421" y="244" as="targetPoint" />
          </mxGeometry>
        </mxCell>
        <mxCell id="FV8Ikgj9Xe0BQtX1Jbdk-40" value="" style="endArrow=classic;html=1;strokeWidth=1;fontFamily=Courier New;fontColor=#009900;" edge="1" parent="FV8Ikgj9Xe0BQtX1Jbdk-1">
          <mxGeometry width="50" height="50" relative="1" as="geometry">
            <mxPoint x="151" y="163" as="sourcePoint" />
            <mxPoint x="341" y="163" as="targetPoint" />
          </mxGeometry>
        </mxCell>
        <mxCell id="LQJYd7xTaYx_P_yeuhsD-0" value="" style="verticalLabelPosition=bottom;verticalAlign=top;html=1;strokeWidth=4;shape=mxgraph.flowchart.on-page_reference;strokeColor=#6c8ebf;fillColor=#dae8fc;" vertex="1" parent="FV8Ikgj9Xe0BQtX1Jbdk-1">
          <mxGeometry x="670" y="229" width="30" height="30" as="geometry" />
        </mxCell>
        <mxCell id="LQJYd7xTaYx_P_yeuhsD-1" value="" style="edgeStyle=orthogonalEdgeStyle;rounded=0;orthogonalLoop=1;jettySize=auto;html=1;endArrow=none;endFill=0;strokeWidth=4;exitX=1;exitY=0.5;exitDx=0;exitDy=0;exitPerimeter=0;entryX=0;entryY=0.5;entryDx=0;entryDy=0;entryPerimeter=0;" edge="1" parent="FV8Ikgj9Xe0BQtX1Jbdk-1" source="FV8Ikgj9Xe0BQtX1Jbdk-33" target="LQJYd7xTaYx_P_yeuhsD-0">
          <mxGeometry relative="1" as="geometry">
            <mxPoint x="505" y="254" as="sourcePoint" />
            <mxPoint x="560" y="254" as="targetPoint" />
          </mxGeometry>
        </mxCell>
        <mxCell id="LQJYd7xTaYx_P_yeuhsD-2" style="edgeStyle=orthogonalEdgeStyle;curved=1;rounded=0;orthogonalLoop=1;jettySize=auto;html=1;exitX=1;exitY=0.5;exitDx=0;exitDy=0;exitPerimeter=0;entryX=0;entryY=0.5;entryDx=0;entryDy=0;entryPerimeter=0;endArrow=none;endFill=0;strokeWidth=4;fontFamily=Courier New;fontColor=#009900;" edge="1" parent="FV8Ikgj9Xe0BQtX1Jbdk-1" source="FV8Ikgj9Xe0BQtX1Jbdk-26" target="LQJYd7xTaYx_P_yeuhsD-0">
          <mxGeometry relative="1" as="geometry">
            <mxPoint x="421" y="175" as="sourcePoint" />
            <mxPoint x="475" y="254" as="targetPoint" />
          </mxGeometry>
        </mxCell>
        <mxCell id="LQJYd7xTaYx_P_yeuhsD-4" style="edgeStyle=orthogonalEdgeStyle;curved=1;rounded=0;orthogonalLoop=1;jettySize=auto;html=1;exitX=0;exitY=0.5;exitDx=0;exitDy=0;exitPerimeter=0;entryX=1;entryY=0.5;entryDx=0;entryDy=0;entryPerimeter=0;endArrow=none;endFill=0;strokeWidth=4;fontFamily=Courier New;fontColor=#009900;" edge="1" parent="FV8Ikgj9Xe0BQtX1Jbdk-1" source="FV8Ikgj9Xe0BQtX1Jbdk-28" target="LQJYd7xTaYx_P_yeuhsD-0">
          <mxGeometry relative="1" as="geometry">
            <mxPoint x="599" y="175" as="sourcePoint" />
            <mxPoint x="680" y="254" as="targetPoint" />
          </mxGeometry>
        </mxCell>
        <mxCell id="jeVSxGtWCJ5XZFpl3Xer-0" value="Merge from development to feature stream is missing piece." style="text;html=1;align=center;verticalAlign=middle;whiteSpace=wrap;rounded=0;fillColor=#dae8fc;strokeColor=#6c8ebf;" vertex="1" parent="FV8Ikgj9Xe0BQtX1Jbdk-1">
          <mxGeometry x="460" y="330" width="130" height="100" as="geometry" />
        </mxCell>
        <mxCell id="jeVSxGtWCJ5XZFpl3Xer-2" value="" style="curved=1;endArrow=classic;html=1;rounded=0;entryX=0.145;entryY=0.855;entryDx=0;entryDy=0;entryPerimeter=0;exitX=0.5;exitY=0;exitDx=0;exitDy=0;" edge="1" parent="FV8Ikgj9Xe0BQtX1Jbdk-1" source="jeVSxGtWCJ5XZFpl3Xer-0" target="LQJYd7xTaYx_P_yeuhsD-0">
          <mxGeometry width="50" height="50" relative="1" as="geometry">
            <mxPoint x="550" y="320" as="sourcePoint" />
            <mxPoint x="570" y="390" as="targetPoint" />
            <Array as="points">
              <mxPoint x="550" y="300" />
            </Array>
          </mxGeometry>
        </mxCell>
      </root>
    </mxGraphModel>
  </diagram>
  <diagram name="Reviews" id="_rpslNyPjTLJa3N10TFP">
    <mxGraphModel dx="1221" dy="815" grid="1" gridSize="10" guides="1" tooltips="1" connect="1" arrows="1" fold="1" page="1" pageScale="1" pageWidth="1100" pageHeight="850" math="0" shadow="0">
      <root>
        <mxCell id="UzamK8afiQqyawYa0B1D-0" />
        <mxCell id="UzamK8afiQqyawYa0B1D-1" parent="UzamK8afiQqyawYa0B1D-0" />
        <mxCell id="UzamK8afiQqyawYa0B1D-2" value="" style="edgeStyle=orthogonalEdgeStyle;rounded=0;orthogonalLoop=1;jettySize=auto;html=1;endArrow=none;endFill=0;strokeWidth=4;" edge="1" parent="UzamK8afiQqyawYa0B1D-1" source="UzamK8afiQqyawYa0B1D-4" target="UzamK8afiQqyawYa0B1D-6">
          <mxGeometry relative="1" as="geometry" />
        </mxCell>
        <mxCell id="UzamK8afiQqyawYa0B1D-3" style="edgeStyle=orthogonalEdgeStyle;curved=1;rounded=0;orthogonalLoop=1;jettySize=auto;html=1;exitX=1;exitY=0.5;exitDx=0;exitDy=0;exitPerimeter=0;entryX=0;entryY=0.5;entryDx=0;entryDy=0;entryPerimeter=0;endArrow=none;endFill=0;strokeWidth=4;fontFamily=Courier New;fontColor=#009900;" edge="1" parent="UzamK8afiQqyawYa0B1D-1" source="UzamK8afiQqyawYa0B1D-4" target="UzamK8afiQqyawYa0B1D-12">
          <mxGeometry relative="1" as="geometry" />
        </mxCell>
        <mxCell id="UzamK8afiQqyawYa0B1D-4" value="" style="verticalLabelPosition=bottom;verticalAlign=top;html=1;strokeWidth=4;shape=mxgraph.flowchart.on-page_reference;plain-purple;gradientColor=none;strokeColor=#000000;fillColor=#D5E8D4;" vertex="1" parent="UzamK8afiQqyawYa0B1D-1">
          <mxGeometry x="381" y="150" width="30" height="30" as="geometry" />
        </mxCell>
        <mxCell id="UzamK8afiQqyawYa0B1D-5" value="" style="edgeStyle=orthogonalEdgeStyle;curved=1;rounded=0;orthogonalLoop=1;jettySize=auto;html=1;endArrow=none;endFill=0;strokeWidth=4;" edge="1" parent="UzamK8afiQqyawYa0B1D-1" source="UzamK8afiQqyawYa0B1D-6" target="UzamK8afiQqyawYa0B1D-8">
          <mxGeometry relative="1" as="geometry" />
        </mxCell>
        <mxCell id="UzamK8afiQqyawYa0B1D-6" value="" style="verticalLabelPosition=bottom;verticalAlign=top;html=1;strokeWidth=4;shape=mxgraph.flowchart.on-page_reference;plain-purple;gradientColor=none;strokeColor=#000000;fillColor=#D5E8D4;" vertex="1" parent="UzamK8afiQqyawYa0B1D-1">
          <mxGeometry x="479" y="150" width="30" height="30" as="geometry" />
        </mxCell>
        <mxCell id="UzamK8afiQqyawYa0B1D-7" value="" style="edgeStyle=orthogonalEdgeStyle;curved=1;rounded=0;orthogonalLoop=1;jettySize=auto;html=1;endArrow=none;endFill=0;strokeWidth=4;fontFamily=Courier New;fontColor=#009900;" edge="1" parent="UzamK8afiQqyawYa0B1D-1" source="UzamK8afiQqyawYa0B1D-8" target="UzamK8afiQqyawYa0B1D-9">
          <mxGeometry relative="1" as="geometry" />
        </mxCell>
        <mxCell id="UzamK8afiQqyawYa0B1D-8" value="" style="verticalLabelPosition=bottom;verticalAlign=top;html=1;strokeWidth=4;shape=mxgraph.flowchart.on-page_reference;plain-purple;gradientColor=none;strokeColor=#000000;fillColor=#D5E8D4;" vertex="1" parent="UzamK8afiQqyawYa0B1D-1">
          <mxGeometry x="559" y="150" width="30" height="30" as="geometry" />
        </mxCell>
        <mxCell id="UzamK8afiQqyawYa0B1D-9" value="" style="verticalLabelPosition=bottom;verticalAlign=top;html=1;strokeWidth=4;shape=mxgraph.flowchart.on-page_reference;strokeColor=#b85450;fillColor=#f8cecc;" vertex="1" parent="UzamK8afiQqyawYa0B1D-1">
          <mxGeometry x="770" y="150" width="30" height="30" as="geometry" />
        </mxCell>
        <mxCell id="UzamK8afiQqyawYa0B1D-10" value="develop" style="text;html=1;strokeColor=none;fillColor=none;align=left;verticalAlign=middle;whiteSpace=wrap;overflow=hidden;fontSize=14;fontStyle=1;fontFamily=Courier New;" vertex="1" parent="UzamK8afiQqyawYa0B1D-1">
          <mxGeometry x="52" y="153" width="91" height="20" as="geometry" />
        </mxCell>
        <mxCell id="UzamK8afiQqyawYa0B1D-11" value="" style="edgeStyle=orthogonalEdgeStyle;rounded=0;orthogonalLoop=1;jettySize=auto;html=1;endArrow=none;endFill=0;strokeWidth=4;" edge="1" parent="UzamK8afiQqyawYa0B1D-1" source="UzamK8afiQqyawYa0B1D-12" target="UzamK8afiQqyawYa0B1D-13">
          <mxGeometry relative="1" as="geometry" />
        </mxCell>
        <mxCell id="UzamK8afiQqyawYa0B1D-12" value="" style="verticalLabelPosition=bottom;verticalAlign=top;html=1;strokeWidth=4;shape=mxgraph.flowchart.on-page_reference;plain-purple;gradientColor=none;strokeColor=#000000;fillColor=#D5E8D4;" vertex="1" parent="UzamK8afiQqyawYa0B1D-1">
          <mxGeometry x="465" y="229" width="30" height="30" as="geometry" />
        </mxCell>
        <mxCell id="UzamK8afiQqyawYa0B1D-13" value="" style="verticalLabelPosition=bottom;verticalAlign=top;html=1;strokeWidth=4;shape=mxgraph.flowchart.on-page_reference;plain-purple;gradientColor=none;strokeColor=#000000;fillColor=#D5E8D4;" vertex="1" parent="UzamK8afiQqyawYa0B1D-1">
          <mxGeometry x="550" y="229" width="30" height="30" as="geometry" />
        </mxCell>
        <mxCell id="UzamK8afiQqyawYa0B1D-14" value="feature" style="text;html=1;strokeColor=none;fillColor=none;align=left;verticalAlign=middle;whiteSpace=wrap;overflow=hidden;fontSize=14;fontStyle=1;fontFamily=Courier New;" vertex="1" parent="UzamK8afiQqyawYa0B1D-1">
          <mxGeometry x="51.75" y="234" width="240" height="20" as="geometry" />
        </mxCell>
        <mxCell id="UzamK8afiQqyawYa0B1D-15" value="The development or sprint branch" style="text;html=1;strokeColor=none;fillColor=none;align=left;verticalAlign=middle;whiteSpace=wrap;overflow=hidden;fontSize=14;fontStyle=0;fontColor=#009900;" vertex="1" parent="UzamK8afiQqyawYa0B1D-1">
          <mxGeometry x="50" y="173" width="240" height="20" as="geometry" />
        </mxCell>
        <mxCell id="UzamK8afiQqyawYa0B1D-16" value="Your feature branch" style="text;html=1;strokeColor=none;fillColor=none;align=left;verticalAlign=middle;whiteSpace=wrap;overflow=hidden;fontSize=14;fontStyle=0;fontColor=#009900;" vertex="1" parent="UzamK8afiQqyawYa0B1D-1">
          <mxGeometry x="50" y="254" width="240" height="20" as="geometry" />
        </mxCell>
        <mxCell id="UzamK8afiQqyawYa0B1D-17" value="" style="endArrow=classic;html=1;strokeWidth=1;fontFamily=Courier New;fontColor=#009900;" edge="1" parent="UzamK8afiQqyawYa0B1D-1">
          <mxGeometry width="50" height="50" relative="1" as="geometry">
            <mxPoint x="271" y="243.5" as="sourcePoint" />
            <mxPoint x="421" y="244" as="targetPoint" />
          </mxGeometry>
        </mxCell>
        <mxCell id="UzamK8afiQqyawYa0B1D-18" value="" style="endArrow=classic;html=1;strokeWidth=1;fontFamily=Courier New;fontColor=#009900;" edge="1" parent="UzamK8afiQqyawYa0B1D-1">
          <mxGeometry width="50" height="50" relative="1" as="geometry">
            <mxPoint x="151" y="163" as="sourcePoint" />
            <mxPoint x="341" y="163" as="targetPoint" />
          </mxGeometry>
        </mxCell>
        <mxCell id="UzamK8afiQqyawYa0B1D-19" value="" style="verticalLabelPosition=bottom;verticalAlign=top;html=1;strokeWidth=4;shape=mxgraph.flowchart.on-page_reference;strokeColor=#6c8ebf;fillColor=#dae8fc;" vertex="1" parent="UzamK8afiQqyawYa0B1D-1">
          <mxGeometry x="670" y="229" width="30" height="30" as="geometry" />
        </mxCell>
        <mxCell id="UzamK8afiQqyawYa0B1D-20" value="" style="edgeStyle=orthogonalEdgeStyle;rounded=0;orthogonalLoop=1;jettySize=auto;html=1;endArrow=none;endFill=0;strokeWidth=4;exitX=1;exitY=0.5;exitDx=0;exitDy=0;exitPerimeter=0;entryX=0;entryY=0.5;entryDx=0;entryDy=0;entryPerimeter=0;" edge="1" parent="UzamK8afiQqyawYa0B1D-1" source="UzamK8afiQqyawYa0B1D-13" target="UzamK8afiQqyawYa0B1D-19">
          <mxGeometry relative="1" as="geometry">
            <mxPoint x="505" y="254" as="sourcePoint" />
            <mxPoint x="560" y="254" as="targetPoint" />
          </mxGeometry>
        </mxCell>
        <mxCell id="UzamK8afiQqyawYa0B1D-21" style="edgeStyle=orthogonalEdgeStyle;curved=1;rounded=0;orthogonalLoop=1;jettySize=auto;html=1;exitX=1;exitY=0.5;exitDx=0;exitDy=0;exitPerimeter=0;entryX=0;entryY=0.5;entryDx=0;entryDy=0;entryPerimeter=0;endArrow=none;endFill=0;strokeWidth=4;fontFamily=Courier New;fontColor=#009900;" edge="1" parent="UzamK8afiQqyawYa0B1D-1" source="UzamK8afiQqyawYa0B1D-8" target="UzamK8afiQqyawYa0B1D-19">
          <mxGeometry relative="1" as="geometry">
            <mxPoint x="421" y="175" as="sourcePoint" />
            <mxPoint x="475" y="254" as="targetPoint" />
          </mxGeometry>
        </mxCell>
        <mxCell id="UzamK8afiQqyawYa0B1D-22" style="edgeStyle=orthogonalEdgeStyle;curved=1;rounded=0;orthogonalLoop=1;jettySize=auto;html=1;exitX=0;exitY=0.5;exitDx=0;exitDy=0;exitPerimeter=0;entryX=1;entryY=0.5;entryDx=0;entryDy=0;entryPerimeter=0;endArrow=none;endFill=0;strokeWidth=4;fontFamily=Courier New;fontColor=#009900;" edge="1" parent="UzamK8afiQqyawYa0B1D-1" source="UzamK8afiQqyawYa0B1D-9" target="UzamK8afiQqyawYa0B1D-19">
          <mxGeometry relative="1" as="geometry">
            <mxPoint x="599" y="175" as="sourcePoint" />
            <mxPoint x="680" y="254" as="targetPoint" />
          </mxGeometry>
        </mxCell>
        <mxCell id="13fomuwqjK23cbXBPY0y-0" value="Result is a completely known original state plus a completely known feature." style="text;html=1;align=center;verticalAlign=middle;whiteSpace=wrap;rounded=0;" vertex="1" parent="UzamK8afiQqyawYa0B1D-1">
          <mxGeometry x="830" y="120" width="160" height="90" as="geometry" />
        </mxCell>
        <mxCell id="3ytikR-GDjLw-bYLVDgi-0" value="" style="group" vertex="1" connectable="0" parent="UzamK8afiQqyawYa0B1D-1">
          <mxGeometry x="615" y="210" width="140" height="160" as="geometry" />
        </mxCell>
        <mxCell id="kUbcT0GoMgwWHs6dXaNL-0" value="" style="rounded=0;whiteSpace=wrap;html=1;fillColor=none;strokeColor=#9673a6;" vertex="1" parent="3ytikR-GDjLw-bYLVDgi-0">
          <mxGeometry x="5" width="130" height="160" as="geometry" />
        </mxCell>
        <mxCell id="kUbcT0GoMgwWHs6dXaNL-1" value="Peer Review (maybe)&lt;div&gt;QA Review&lt;/div&gt;&lt;div&gt;SME Review&lt;/div&gt;&lt;div&gt;PO Review&lt;/div&gt;" style="text;html=1;align=center;verticalAlign=middle;whiteSpace=wrap;rounded=0;" vertex="1" parent="3ytikR-GDjLw-bYLVDgi-0">
          <mxGeometry y="80" width="140" height="70" as="geometry" />
        </mxCell>
        <mxCell id="3ytikR-GDjLw-bYLVDgi-1" value="" style="group" vertex="1" connectable="0" parent="UzamK8afiQqyawYa0B1D-1">
          <mxGeometry x="450" y="210" width="150" height="160" as="geometry" />
        </mxCell>
        <mxCell id="sCVsrIa-4Cg17Q685LEh-0" value="" style="rounded=0;whiteSpace=wrap;html=1;fillColor=none;strokeColor=#9673a6;" vertex="1" parent="3ytikR-GDjLw-bYLVDgi-1">
          <mxGeometry width="150" height="160" as="geometry" />
        </mxCell>
        <mxCell id="sCVsrIa-4Cg17Q685LEh-3" value="Peer Review for &amp;nbsp;these changes." style="text;html=1;align=center;verticalAlign=middle;whiteSpace=wrap;rounded=0;" vertex="1" parent="3ytikR-GDjLw-bYLVDgi-1">
          <mxGeometry x="20" y="80" width="110" height="70" as="geometry" />
        </mxCell>
      </root>
    </mxGraphModel>
  </diagram>
  <diagram name="Punch List" id="sGKLbk5iCU2GhPtaGWHW">
    <mxGraphModel dx="1221" dy="815" grid="1" gridSize="10" guides="1" tooltips="1" connect="1" arrows="1" fold="1" page="1" pageScale="1" pageWidth="1100" pageHeight="850" math="0" shadow="0">
      <root>
        <mxCell id="OdMOJ5Aiym-pGZwje5Xy-0" />
        <mxCell id="OdMOJ5Aiym-pGZwje5Xy-1" parent="OdMOJ5Aiym-pGZwje5Xy-0" />
        <mxCell id="IqtKm49OIk9N-05Woqhm-0" value="" style="group" vertex="1" connectable="0" parent="OdMOJ5Aiym-pGZwje5Xy-1">
          <mxGeometry x="615" y="210" width="140" height="160" as="geometry" />
        </mxCell>
        <mxCell id="IqtKm49OIk9N-05Woqhm-1" value="" style="rounded=0;whiteSpace=wrap;html=1;fillColor=none;strokeColor=#9673a6;" vertex="1" parent="IqtKm49OIk9N-05Woqhm-0">
          <mxGeometry x="5" width="130" height="160" as="geometry" />
        </mxCell>
        <mxCell id="IqtKm49OIk9N-05Woqhm-2" value="PO Review results in Punch List" style="text;html=1;align=center;verticalAlign=middle;whiteSpace=wrap;rounded=0;" vertex="1" parent="IqtKm49OIk9N-05Woqhm-0">
          <mxGeometry y="80" width="140" height="70" as="geometry" />
        </mxCell>
        <mxCell id="V-9TOuuvfdVXThq01qQM-4" value="" style="group" vertex="1" connectable="0" parent="OdMOJ5Aiym-pGZwje5Xy-1">
          <mxGeometry x="760" y="220" width="50" height="80" as="geometry" />
        </mxCell>
        <mxCell id="ODwAn2IXIcE2PEsM-ZQ1-0" value="" style="group" vertex="1" connectable="0" parent="V-9TOuuvfdVXThq01qQM-4">
          <mxGeometry width="50" height="80" as="geometry" />
        </mxCell>
        <mxCell id="V-9TOuuvfdVXThq01qQM-5" value="" style="rounded=0;whiteSpace=wrap;html=1;fillColor=none;strokeColor=#9673a6;" vertex="1" parent="ODwAn2IXIcE2PEsM-ZQ1-0">
          <mxGeometry x="1.7857142857142858" width="46.42857142857143" height="80" as="geometry" />
        </mxCell>
        <mxCell id="V-9TOuuvfdVXThq01qQM-6" value="PR/Mini QA" style="text;html=1;align=center;verticalAlign=middle;whiteSpace=wrap;rounded=0;" vertex="1" parent="ODwAn2IXIcE2PEsM-ZQ1-0">
          <mxGeometry y="40" width="50" height="35" as="geometry" />
        </mxCell>
        <mxCell id="V-9TOuuvfdVXThq01qQM-8" value="" style="group" vertex="1" connectable="0" parent="OdMOJ5Aiym-pGZwje5Xy-1">
          <mxGeometry x="810" y="220" width="50" height="80" as="geometry" />
        </mxCell>
        <mxCell id="ODwAn2IXIcE2PEsM-ZQ1-1" value="" style="group" vertex="1" connectable="0" parent="V-9TOuuvfdVXThq01qQM-8">
          <mxGeometry width="50" height="80" as="geometry" />
        </mxCell>
        <mxCell id="V-9TOuuvfdVXThq01qQM-9" value="" style="rounded=0;whiteSpace=wrap;html=1;fillColor=none;strokeColor=#9673a6;" vertex="1" parent="ODwAn2IXIcE2PEsM-ZQ1-1">
          <mxGeometry x="1.7857142857142858" width="46.42857142857143" height="80" as="geometry" />
        </mxCell>
        <mxCell id="V-9TOuuvfdVXThq01qQM-10" value="PR/Mini QA" style="text;html=1;align=center;verticalAlign=middle;whiteSpace=wrap;rounded=0;" vertex="1" parent="ODwAn2IXIcE2PEsM-ZQ1-1">
          <mxGeometry y="40" width="50" height="35" as="geometry" />
        </mxCell>
        <mxCell id="V-9TOuuvfdVXThq01qQM-11" value="" style="group" vertex="1" connectable="0" parent="OdMOJ5Aiym-pGZwje5Xy-1">
          <mxGeometry x="860" y="220" width="50" height="80" as="geometry" />
        </mxCell>
        <mxCell id="V-9TOuuvfdVXThq01qQM-12" value="" style="rounded=0;whiteSpace=wrap;html=1;fillColor=none;strokeColor=#9673a6;" vertex="1" parent="V-9TOuuvfdVXThq01qQM-11">
          <mxGeometry x="1.7857142857142858" width="46.42857142857143" height="80" as="geometry" />
        </mxCell>
        <mxCell id="V-9TOuuvfdVXThq01qQM-13" value="PRMini QA" style="text;html=1;align=center;verticalAlign=middle;whiteSpace=wrap;rounded=0;" vertex="1" parent="V-9TOuuvfdVXThq01qQM-11">
          <mxGeometry y="40" width="50" height="35" as="geometry" />
        </mxCell>
        <mxCell id="OdMOJ5Aiym-pGZwje5Xy-2" value="" style="edgeStyle=orthogonalEdgeStyle;rounded=0;orthogonalLoop=1;jettySize=auto;html=1;endArrow=none;endFill=0;strokeWidth=4;" edge="1" parent="OdMOJ5Aiym-pGZwje5Xy-1" source="OdMOJ5Aiym-pGZwje5Xy-4" target="OdMOJ5Aiym-pGZwje5Xy-6">
          <mxGeometry relative="1" as="geometry" />
        </mxCell>
        <mxCell id="OdMOJ5Aiym-pGZwje5Xy-3" style="edgeStyle=orthogonalEdgeStyle;curved=1;rounded=0;orthogonalLoop=1;jettySize=auto;html=1;exitX=1;exitY=0.5;exitDx=0;exitDy=0;exitPerimeter=0;entryX=0;entryY=0.5;entryDx=0;entryDy=0;entryPerimeter=0;endArrow=none;endFill=0;strokeWidth=4;fontFamily=Courier New;fontColor=#009900;" edge="1" parent="OdMOJ5Aiym-pGZwje5Xy-1" source="OdMOJ5Aiym-pGZwje5Xy-4" target="OdMOJ5Aiym-pGZwje5Xy-12">
          <mxGeometry relative="1" as="geometry" />
        </mxCell>
        <mxCell id="OdMOJ5Aiym-pGZwje5Xy-4" value="" style="verticalLabelPosition=bottom;verticalAlign=top;html=1;strokeWidth=4;shape=mxgraph.flowchart.on-page_reference;plain-purple;gradientColor=none;strokeColor=#000000;fillColor=#D5E8D4;" vertex="1" parent="OdMOJ5Aiym-pGZwje5Xy-1">
          <mxGeometry x="381" y="150" width="30" height="30" as="geometry" />
        </mxCell>
        <mxCell id="OdMOJ5Aiym-pGZwje5Xy-5" value="" style="edgeStyle=orthogonalEdgeStyle;curved=1;rounded=0;orthogonalLoop=1;jettySize=auto;html=1;endArrow=none;endFill=0;strokeWidth=4;" edge="1" parent="OdMOJ5Aiym-pGZwje5Xy-1" source="OdMOJ5Aiym-pGZwje5Xy-6" target="OdMOJ5Aiym-pGZwje5Xy-8">
          <mxGeometry relative="1" as="geometry" />
        </mxCell>
        <mxCell id="OdMOJ5Aiym-pGZwje5Xy-6" value="" style="verticalLabelPosition=bottom;verticalAlign=top;html=1;strokeWidth=4;shape=mxgraph.flowchart.on-page_reference;plain-purple;gradientColor=none;strokeColor=#000000;fillColor=#D5E8D4;" vertex="1" parent="OdMOJ5Aiym-pGZwje5Xy-1">
          <mxGeometry x="479" y="150" width="30" height="30" as="geometry" />
        </mxCell>
        <mxCell id="OdMOJ5Aiym-pGZwje5Xy-7" value="" style="edgeStyle=orthogonalEdgeStyle;curved=1;rounded=0;orthogonalLoop=1;jettySize=auto;html=1;endArrow=none;endFill=0;strokeWidth=4;fontFamily=Courier New;fontColor=#009900;" edge="1" parent="OdMOJ5Aiym-pGZwje5Xy-1" source="OdMOJ5Aiym-pGZwje5Xy-8" target="OdMOJ5Aiym-pGZwje5Xy-9">
          <mxGeometry relative="1" as="geometry" />
        </mxCell>
        <mxCell id="OdMOJ5Aiym-pGZwje5Xy-8" value="" style="verticalLabelPosition=bottom;verticalAlign=top;html=1;strokeWidth=4;shape=mxgraph.flowchart.on-page_reference;plain-purple;gradientColor=none;strokeColor=#000000;fillColor=#D5E8D4;" vertex="1" parent="OdMOJ5Aiym-pGZwje5Xy-1">
          <mxGeometry x="559" y="150" width="30" height="30" as="geometry" />
        </mxCell>
        <mxCell id="OdMOJ5Aiym-pGZwje5Xy-9" value="" style="verticalLabelPosition=bottom;verticalAlign=top;html=1;strokeWidth=4;shape=mxgraph.flowchart.on-page_reference;strokeColor=#b85450;fillColor=#f8cecc;" vertex="1" parent="OdMOJ5Aiym-pGZwje5Xy-1">
          <mxGeometry x="980" y="150" width="30" height="30" as="geometry" />
        </mxCell>
        <mxCell id="OdMOJ5Aiym-pGZwje5Xy-10" value="develop" style="text;html=1;strokeColor=none;fillColor=none;align=left;verticalAlign=middle;whiteSpace=wrap;overflow=hidden;fontSize=14;fontStyle=1;fontFamily=Courier New;" vertex="1" parent="OdMOJ5Aiym-pGZwje5Xy-1">
          <mxGeometry x="52" y="153" width="91" height="20" as="geometry" />
        </mxCell>
        <mxCell id="OdMOJ5Aiym-pGZwje5Xy-11" value="" style="edgeStyle=orthogonalEdgeStyle;rounded=0;orthogonalLoop=1;jettySize=auto;html=1;endArrow=none;endFill=0;strokeWidth=4;" edge="1" parent="OdMOJ5Aiym-pGZwje5Xy-1" source="OdMOJ5Aiym-pGZwje5Xy-12" target="OdMOJ5Aiym-pGZwje5Xy-13">
          <mxGeometry relative="1" as="geometry" />
        </mxCell>
        <mxCell id="OdMOJ5Aiym-pGZwje5Xy-12" value="" style="verticalLabelPosition=bottom;verticalAlign=top;html=1;strokeWidth=4;shape=mxgraph.flowchart.on-page_reference;plain-purple;gradientColor=none;strokeColor=#000000;fillColor=#D5E8D4;" vertex="1" parent="OdMOJ5Aiym-pGZwje5Xy-1">
          <mxGeometry x="465" y="229" width="30" height="30" as="geometry" />
        </mxCell>
        <mxCell id="OdMOJ5Aiym-pGZwje5Xy-13" value="" style="verticalLabelPosition=bottom;verticalAlign=top;html=1;strokeWidth=4;shape=mxgraph.flowchart.on-page_reference;plain-purple;gradientColor=none;strokeColor=#000000;fillColor=#D5E8D4;" vertex="1" parent="OdMOJ5Aiym-pGZwje5Xy-1">
          <mxGeometry x="550" y="229" width="30" height="30" as="geometry" />
        </mxCell>
        <mxCell id="OdMOJ5Aiym-pGZwje5Xy-14" value="feature" style="text;html=1;strokeColor=none;fillColor=none;align=left;verticalAlign=middle;whiteSpace=wrap;overflow=hidden;fontSize=14;fontStyle=1;fontFamily=Courier New;" vertex="1" parent="OdMOJ5Aiym-pGZwje5Xy-1">
          <mxGeometry x="51.75" y="234" width="240" height="20" as="geometry" />
        </mxCell>
        <mxCell id="OdMOJ5Aiym-pGZwje5Xy-15" value="The development or sprint branch" style="text;html=1;strokeColor=none;fillColor=none;align=left;verticalAlign=middle;whiteSpace=wrap;overflow=hidden;fontSize=14;fontStyle=0;fontColor=#009900;" vertex="1" parent="OdMOJ5Aiym-pGZwje5Xy-1">
          <mxGeometry x="50" y="173" width="240" height="20" as="geometry" />
        </mxCell>
        <mxCell id="OdMOJ5Aiym-pGZwje5Xy-16" value="Your feature branch" style="text;html=1;strokeColor=none;fillColor=none;align=left;verticalAlign=middle;whiteSpace=wrap;overflow=hidden;fontSize=14;fontStyle=0;fontColor=#009900;" vertex="1" parent="OdMOJ5Aiym-pGZwje5Xy-1">
          <mxGeometry x="50" y="254" width="240" height="20" as="geometry" />
        </mxCell>
        <mxCell id="OdMOJ5Aiym-pGZwje5Xy-17" value="" style="endArrow=classic;html=1;strokeWidth=1;fontFamily=Courier New;fontColor=#009900;" edge="1" parent="OdMOJ5Aiym-pGZwje5Xy-1">
          <mxGeometry width="50" height="50" relative="1" as="geometry">
            <mxPoint x="271" y="243.5" as="sourcePoint" />
            <mxPoint x="421" y="244" as="targetPoint" />
          </mxGeometry>
        </mxCell>
        <mxCell id="OdMOJ5Aiym-pGZwje5Xy-18" value="" style="endArrow=classic;html=1;strokeWidth=1;fontFamily=Courier New;fontColor=#009900;" edge="1" parent="OdMOJ5Aiym-pGZwje5Xy-1">
          <mxGeometry width="50" height="50" relative="1" as="geometry">
            <mxPoint x="151" y="163" as="sourcePoint" />
            <mxPoint x="341" y="163" as="targetPoint" />
          </mxGeometry>
        </mxCell>
        <mxCell id="OdMOJ5Aiym-pGZwje5Xy-19" value="" style="verticalLabelPosition=bottom;verticalAlign=top;html=1;strokeWidth=4;shape=mxgraph.flowchart.on-page_reference;strokeColor=#6c8ebf;fillColor=#dae8fc;" vertex="1" parent="OdMOJ5Aiym-pGZwje5Xy-1">
          <mxGeometry x="670" y="229" width="30" height="30" as="geometry" />
        </mxCell>
        <mxCell id="OdMOJ5Aiym-pGZwje5Xy-20" value="" style="edgeStyle=orthogonalEdgeStyle;rounded=0;orthogonalLoop=1;jettySize=auto;html=1;endArrow=none;endFill=0;strokeWidth=4;exitX=1;exitY=0.5;exitDx=0;exitDy=0;exitPerimeter=0;entryX=0;entryY=0.5;entryDx=0;entryDy=0;entryPerimeter=0;" edge="1" parent="OdMOJ5Aiym-pGZwje5Xy-1" source="OdMOJ5Aiym-pGZwje5Xy-13" target="OdMOJ5Aiym-pGZwje5Xy-19">
          <mxGeometry relative="1" as="geometry">
            <mxPoint x="505" y="254" as="sourcePoint" />
            <mxPoint x="560" y="254" as="targetPoint" />
          </mxGeometry>
        </mxCell>
        <mxCell id="OdMOJ5Aiym-pGZwje5Xy-21" style="edgeStyle=orthogonalEdgeStyle;curved=1;rounded=0;orthogonalLoop=1;jettySize=auto;html=1;exitX=1;exitY=0.5;exitDx=0;exitDy=0;exitPerimeter=0;entryX=0;entryY=0.5;entryDx=0;entryDy=0;entryPerimeter=0;endArrow=none;endFill=0;strokeWidth=4;fontFamily=Courier New;fontColor=#009900;" edge="1" parent="OdMOJ5Aiym-pGZwje5Xy-1" source="OdMOJ5Aiym-pGZwje5Xy-8" target="OdMOJ5Aiym-pGZwje5Xy-19">
          <mxGeometry relative="1" as="geometry">
            <mxPoint x="421" y="175" as="sourcePoint" />
            <mxPoint x="475" y="254" as="targetPoint" />
          </mxGeometry>
        </mxCell>
        <mxCell id="OdMOJ5Aiym-pGZwje5Xy-22" style="edgeStyle=orthogonalEdgeStyle;curved=1;rounded=0;orthogonalLoop=1;jettySize=auto;html=1;exitX=0;exitY=0.5;exitDx=0;exitDy=0;exitPerimeter=0;endArrow=none;endFill=0;strokeWidth=4;fontFamily=Courier New;fontColor=#009900;entryX=1;entryY=0.5;entryDx=0;entryDy=0;entryPerimeter=0;" edge="1" parent="OdMOJ5Aiym-pGZwje5Xy-1" source="OdMOJ5Aiym-pGZwje5Xy-9" target="q3xpDBxDCyTpTa8R2b32-0">
          <mxGeometry relative="1" as="geometry">
            <mxPoint x="699" y="175" as="sourcePoint" />
            <mxPoint x="970" y="240" as="targetPoint" />
          </mxGeometry>
        </mxCell>
        <mxCell id="q3xpDBxDCyTpTa8R2b32-0" value="" style="verticalLabelPosition=bottom;verticalAlign=top;html=1;strokeWidth=4;shape=mxgraph.flowchart.on-page_reference;strokeColor=#82b366;fillColor=#d5e8d4;" vertex="1" parent="OdMOJ5Aiym-pGZwje5Xy-1">
          <mxGeometry x="870" y="229" width="30" height="30" as="geometry" />
        </mxCell>
        <mxCell id="q3xpDBxDCyTpTa8R2b32-1" value="" style="edgeStyle=orthogonalEdgeStyle;rounded=0;orthogonalLoop=1;jettySize=auto;html=1;endArrow=none;endFill=0;strokeWidth=4;exitX=1;exitY=0.5;exitDx=0;exitDy=0;exitPerimeter=0;entryX=0;entryY=0.5;entryDx=0;entryDy=0;entryPerimeter=0;" edge="1" parent="OdMOJ5Aiym-pGZwje5Xy-1" source="V-9TOuuvfdVXThq01qQM-0" target="q3xpDBxDCyTpTa8R2b32-0">
          <mxGeometry relative="1" as="geometry">
            <mxPoint x="590" y="254" as="sourcePoint" />
            <mxPoint x="680" y="254" as="targetPoint" />
          </mxGeometry>
        </mxCell>
        <mxCell id="V-9TOuuvfdVXThq01qQM-2" value="" style="edgeStyle=orthogonalEdgeStyle;rounded=0;orthogonalLoop=1;jettySize=auto;html=1;endArrow=none;endFill=0;strokeWidth=4;exitX=1;exitY=0.5;exitDx=0;exitDy=0;exitPerimeter=0;entryX=0;entryY=0.5;entryDx=0;entryDy=0;entryPerimeter=0;" edge="1" parent="OdMOJ5Aiym-pGZwje5Xy-1" source="OdMOJ5Aiym-pGZwje5Xy-19" target="V-9TOuuvfdVXThq01qQM-1">
          <mxGeometry relative="1" as="geometry">
            <mxPoint x="700" y="244" as="sourcePoint" />
            <mxPoint x="870" y="244" as="targetPoint" />
          </mxGeometry>
        </mxCell>
        <mxCell id="V-9TOuuvfdVXThq01qQM-1" value="" style="verticalLabelPosition=bottom;verticalAlign=top;html=1;strokeWidth=4;shape=mxgraph.flowchart.on-page_reference;strokeColor=#82b366;fillColor=#d5e8d4;" vertex="1" parent="OdMOJ5Aiym-pGZwje5Xy-1">
          <mxGeometry x="770" y="229" width="30" height="30" as="geometry" />
        </mxCell>
        <mxCell id="V-9TOuuvfdVXThq01qQM-3" value="" style="edgeStyle=orthogonalEdgeStyle;rounded=0;orthogonalLoop=1;jettySize=auto;html=1;endArrow=none;endFill=0;strokeWidth=4;exitX=1;exitY=0.5;exitDx=0;exitDy=0;exitPerimeter=0;entryX=0;entryY=0.5;entryDx=0;entryDy=0;entryPerimeter=0;" edge="1" parent="OdMOJ5Aiym-pGZwje5Xy-1" source="V-9TOuuvfdVXThq01qQM-1" target="V-9TOuuvfdVXThq01qQM-0">
          <mxGeometry relative="1" as="geometry">
            <mxPoint x="800" y="244" as="sourcePoint" />
            <mxPoint x="870" y="244" as="targetPoint" />
          </mxGeometry>
        </mxCell>
        <mxCell id="V-9TOuuvfdVXThq01qQM-0" value="" style="verticalLabelPosition=bottom;verticalAlign=top;html=1;strokeWidth=4;shape=mxgraph.flowchart.on-page_reference;strokeColor=#82b366;fillColor=#d5e8d4;" vertex="1" parent="OdMOJ5Aiym-pGZwje5Xy-1">
          <mxGeometry x="820" y="229" width="30" height="30" as="geometry" />
        </mxCell>
      </root>
    </mxGraphModel>
  </diagram>
  <diagram name="Punch List Extended" id="_H8AG0JfN4XPrzgNKskI">
    <mxGraphModel dx="1221" dy="815" grid="1" gridSize="10" guides="1" tooltips="1" connect="1" arrows="1" fold="1" page="1" pageScale="1" pageWidth="1100" pageHeight="850" math="0" shadow="0">
      <root>
        <mxCell id="IJMmHJ0wsqWwXN11yNMt-0" />
        <mxCell id="IJMmHJ0wsqWwXN11yNMt-1" parent="IJMmHJ0wsqWwXN11yNMt-0" />
        <mxCell id="fvkGN_DprfsIn1iv9u_u-0" value="" style="group" vertex="1" connectable="0" parent="IJMmHJ0wsqWwXN11yNMt-1">
          <mxGeometry x="585" y="210" width="140" height="160" as="geometry" />
        </mxCell>
        <mxCell id="fvkGN_DprfsIn1iv9u_u-1" value="" style="rounded=0;whiteSpace=wrap;html=1;fillColor=none;strokeColor=#9673a6;" vertex="1" parent="fvkGN_DprfsIn1iv9u_u-0">
          <mxGeometry x="5" width="130" height="160" as="geometry" />
        </mxCell>
        <mxCell id="fvkGN_DprfsIn1iv9u_u-2" value="PO Review results in Punch List" style="text;html=1;align=center;verticalAlign=middle;whiteSpace=wrap;rounded=0;" vertex="1" parent="fvkGN_DprfsIn1iv9u_u-0">
          <mxGeometry y="80" width="140" height="70" as="geometry" />
        </mxCell>
        <mxCell id="IJMmHJ0wsqWwXN11yNMt-2" value="" style="edgeStyle=orthogonalEdgeStyle;rounded=0;orthogonalLoop=1;jettySize=auto;html=1;endArrow=none;endFill=0;strokeWidth=4;" edge="1" parent="IJMmHJ0wsqWwXN11yNMt-1" source="IJMmHJ0wsqWwXN11yNMt-4" target="IJMmHJ0wsqWwXN11yNMt-6">
          <mxGeometry relative="1" as="geometry" />
        </mxCell>
        <mxCell id="IJMmHJ0wsqWwXN11yNMt-3" style="edgeStyle=orthogonalEdgeStyle;curved=1;rounded=0;orthogonalLoop=1;jettySize=auto;html=1;exitX=1;exitY=0.5;exitDx=0;exitDy=0;exitPerimeter=0;entryX=0;entryY=0.5;entryDx=0;entryDy=0;entryPerimeter=0;endArrow=none;endFill=0;strokeWidth=4;fontFamily=Courier New;fontColor=#009900;" edge="1" parent="IJMmHJ0wsqWwXN11yNMt-1" source="IJMmHJ0wsqWwXN11yNMt-4" target="IJMmHJ0wsqWwXN11yNMt-12">
          <mxGeometry relative="1" as="geometry" />
        </mxCell>
        <mxCell id="IJMmHJ0wsqWwXN11yNMt-4" value="" style="verticalLabelPosition=bottom;verticalAlign=top;html=1;strokeWidth=4;shape=mxgraph.flowchart.on-page_reference;plain-purple;gradientColor=none;strokeColor=#000000;fillColor=#D5E8D4;" vertex="1" parent="IJMmHJ0wsqWwXN11yNMt-1">
          <mxGeometry x="351" y="150" width="30" height="30" as="geometry" />
        </mxCell>
        <mxCell id="IJMmHJ0wsqWwXN11yNMt-5" value="" style="edgeStyle=orthogonalEdgeStyle;curved=1;rounded=0;orthogonalLoop=1;jettySize=auto;html=1;endArrow=none;endFill=0;strokeWidth=4;" edge="1" parent="IJMmHJ0wsqWwXN11yNMt-1" source="IJMmHJ0wsqWwXN11yNMt-6" target="IJMmHJ0wsqWwXN11yNMt-8">
          <mxGeometry relative="1" as="geometry" />
        </mxCell>
        <mxCell id="IJMmHJ0wsqWwXN11yNMt-6" value="" style="verticalLabelPosition=bottom;verticalAlign=top;html=1;strokeWidth=4;shape=mxgraph.flowchart.on-page_reference;plain-purple;gradientColor=none;strokeColor=#000000;fillColor=#D5E8D4;" vertex="1" parent="IJMmHJ0wsqWwXN11yNMt-1">
          <mxGeometry x="449" y="150" width="30" height="30" as="geometry" />
        </mxCell>
        <mxCell id="IJMmHJ0wsqWwXN11yNMt-7" value="" style="edgeStyle=orthogonalEdgeStyle;curved=1;rounded=0;orthogonalLoop=1;jettySize=auto;html=1;endArrow=none;endFill=0;strokeWidth=4;fontFamily=Courier New;fontColor=#009900;" edge="1" parent="IJMmHJ0wsqWwXN11yNMt-1" source="IJMmHJ0wsqWwXN11yNMt-8" target="IJMmHJ0wsqWwXN11yNMt-9">
          <mxGeometry relative="1" as="geometry" />
        </mxCell>
        <mxCell id="IJMmHJ0wsqWwXN11yNMt-8" value="" style="verticalLabelPosition=bottom;verticalAlign=top;html=1;strokeWidth=4;shape=mxgraph.flowchart.on-page_reference;plain-purple;gradientColor=none;strokeColor=#000000;fillColor=#D5E8D4;" vertex="1" parent="IJMmHJ0wsqWwXN11yNMt-1">
          <mxGeometry x="529" y="150" width="30" height="30" as="geometry" />
        </mxCell>
        <mxCell id="IJMmHJ0wsqWwXN11yNMt-9" value="" style="verticalLabelPosition=bottom;verticalAlign=top;html=1;strokeWidth=4;shape=mxgraph.flowchart.on-page_reference;strokeColor=#b85450;fillColor=#f8cecc;" vertex="1" parent="IJMmHJ0wsqWwXN11yNMt-1">
          <mxGeometry x="1050" y="150" width="30" height="30" as="geometry" />
        </mxCell>
        <mxCell id="IJMmHJ0wsqWwXN11yNMt-10" value="develop" style="text;html=1;strokeColor=none;fillColor=none;align=left;verticalAlign=middle;whiteSpace=wrap;overflow=hidden;fontSize=14;fontStyle=1;fontFamily=Courier New;" vertex="1" parent="IJMmHJ0wsqWwXN11yNMt-1">
          <mxGeometry x="22" y="153" width="91" height="20" as="geometry" />
        </mxCell>
        <mxCell id="IJMmHJ0wsqWwXN11yNMt-11" value="" style="edgeStyle=orthogonalEdgeStyle;rounded=0;orthogonalLoop=1;jettySize=auto;html=1;endArrow=none;endFill=0;strokeWidth=4;" edge="1" parent="IJMmHJ0wsqWwXN11yNMt-1" source="IJMmHJ0wsqWwXN11yNMt-12" target="IJMmHJ0wsqWwXN11yNMt-13">
          <mxGeometry relative="1" as="geometry" />
        </mxCell>
        <mxCell id="IJMmHJ0wsqWwXN11yNMt-12" value="" style="verticalLabelPosition=bottom;verticalAlign=top;html=1;strokeWidth=4;shape=mxgraph.flowchart.on-page_reference;plain-purple;gradientColor=none;strokeColor=#000000;fillColor=#D5E8D4;" vertex="1" parent="IJMmHJ0wsqWwXN11yNMt-1">
          <mxGeometry x="435" y="229" width="30" height="30" as="geometry" />
        </mxCell>
        <mxCell id="IJMmHJ0wsqWwXN11yNMt-13" value="" style="verticalLabelPosition=bottom;verticalAlign=top;html=1;strokeWidth=4;shape=mxgraph.flowchart.on-page_reference;plain-purple;gradientColor=none;strokeColor=#000000;fillColor=#D5E8D4;" vertex="1" parent="IJMmHJ0wsqWwXN11yNMt-1">
          <mxGeometry x="520" y="229" width="30" height="30" as="geometry" />
        </mxCell>
        <mxCell id="IJMmHJ0wsqWwXN11yNMt-14" value="feature" style="text;html=1;strokeColor=none;fillColor=none;align=left;verticalAlign=middle;whiteSpace=wrap;overflow=hidden;fontSize=14;fontStyle=1;fontFamily=Courier New;" vertex="1" parent="IJMmHJ0wsqWwXN11yNMt-1">
          <mxGeometry x="21.75" y="234" width="240" height="20" as="geometry" />
        </mxCell>
        <mxCell id="IJMmHJ0wsqWwXN11yNMt-15" value="The development or sprint branch" style="text;html=1;strokeColor=none;fillColor=none;align=left;verticalAlign=middle;whiteSpace=wrap;overflow=hidden;fontSize=14;fontStyle=0;fontColor=#009900;" vertex="1" parent="IJMmHJ0wsqWwXN11yNMt-1">
          <mxGeometry x="20" y="173" width="240" height="20" as="geometry" />
        </mxCell>
        <mxCell id="IJMmHJ0wsqWwXN11yNMt-16" value="Your feature branch" style="text;html=1;strokeColor=none;fillColor=none;align=left;verticalAlign=middle;whiteSpace=wrap;overflow=hidden;fontSize=14;fontStyle=0;fontColor=#009900;" vertex="1" parent="IJMmHJ0wsqWwXN11yNMt-1">
          <mxGeometry x="20" y="254" width="240" height="20" as="geometry" />
        </mxCell>
        <mxCell id="IJMmHJ0wsqWwXN11yNMt-17" value="" style="endArrow=classic;html=1;strokeWidth=1;fontFamily=Courier New;fontColor=#009900;" edge="1" parent="IJMmHJ0wsqWwXN11yNMt-1">
          <mxGeometry width="50" height="50" relative="1" as="geometry">
            <mxPoint x="241" y="243.5" as="sourcePoint" />
            <mxPoint x="391" y="244" as="targetPoint" />
          </mxGeometry>
        </mxCell>
        <mxCell id="IJMmHJ0wsqWwXN11yNMt-18" value="" style="endArrow=classic;html=1;strokeWidth=1;fontFamily=Courier New;fontColor=#009900;" edge="1" parent="IJMmHJ0wsqWwXN11yNMt-1">
          <mxGeometry width="50" height="50" relative="1" as="geometry">
            <mxPoint x="121" y="163" as="sourcePoint" />
            <mxPoint x="311" y="163" as="targetPoint" />
          </mxGeometry>
        </mxCell>
        <mxCell id="IJMmHJ0wsqWwXN11yNMt-19" value="" style="verticalLabelPosition=bottom;verticalAlign=top;html=1;strokeWidth=4;shape=mxgraph.flowchart.on-page_reference;strokeColor=#6c8ebf;fillColor=#dae8fc;" vertex="1" parent="IJMmHJ0wsqWwXN11yNMt-1">
          <mxGeometry x="640" y="229" width="30" height="30" as="geometry" />
        </mxCell>
        <mxCell id="IJMmHJ0wsqWwXN11yNMt-20" value="" style="edgeStyle=orthogonalEdgeStyle;rounded=0;orthogonalLoop=1;jettySize=auto;html=1;endArrow=none;endFill=0;strokeWidth=4;exitX=1;exitY=0.5;exitDx=0;exitDy=0;exitPerimeter=0;entryX=0;entryY=0.5;entryDx=0;entryDy=0;entryPerimeter=0;" edge="1" parent="IJMmHJ0wsqWwXN11yNMt-1" source="IJMmHJ0wsqWwXN11yNMt-13" target="IJMmHJ0wsqWwXN11yNMt-19">
          <mxGeometry relative="1" as="geometry">
            <mxPoint x="475" y="254" as="sourcePoint" />
            <mxPoint x="530" y="254" as="targetPoint" />
          </mxGeometry>
        </mxCell>
        <mxCell id="IJMmHJ0wsqWwXN11yNMt-21" style="edgeStyle=orthogonalEdgeStyle;curved=1;rounded=0;orthogonalLoop=1;jettySize=auto;html=1;exitX=1;exitY=0.5;exitDx=0;exitDy=0;exitPerimeter=0;entryX=0;entryY=0.5;entryDx=0;entryDy=0;entryPerimeter=0;endArrow=none;endFill=0;strokeWidth=4;fontFamily=Courier New;fontColor=#009900;" edge="1" parent="IJMmHJ0wsqWwXN11yNMt-1" source="IJMmHJ0wsqWwXN11yNMt-8" target="IJMmHJ0wsqWwXN11yNMt-19">
          <mxGeometry relative="1" as="geometry">
            <mxPoint x="391" y="175" as="sourcePoint" />
            <mxPoint x="445" y="254" as="targetPoint" />
          </mxGeometry>
        </mxCell>
        <mxCell id="IJMmHJ0wsqWwXN11yNMt-22" style="edgeStyle=orthogonalEdgeStyle;curved=1;rounded=0;orthogonalLoop=1;jettySize=auto;html=1;exitX=0;exitY=0.5;exitDx=0;exitDy=0;exitPerimeter=0;endArrow=none;endFill=0;strokeWidth=4;fontFamily=Courier New;fontColor=#009900;entryX=1;entryY=0.5;entryDx=0;entryDy=0;entryPerimeter=0;" edge="1" parent="IJMmHJ0wsqWwXN11yNMt-1" source="IJMmHJ0wsqWwXN11yNMt-9" target="IJMmHJ0wsqWwXN11yNMt-23">
          <mxGeometry relative="1" as="geometry">
            <mxPoint x="719" y="175" as="sourcePoint" />
            <mxPoint x="990" y="240" as="targetPoint" />
          </mxGeometry>
        </mxCell>
        <mxCell id="IJMmHJ0wsqWwXN11yNMt-23" value="" style="verticalLabelPosition=bottom;verticalAlign=top;html=1;strokeWidth=4;shape=mxgraph.flowchart.on-page_reference;strokeColor=#82b366;fillColor=#d5e8d4;" vertex="1" parent="IJMmHJ0wsqWwXN11yNMt-1">
          <mxGeometry x="960" y="229" width="30" height="30" as="geometry" />
        </mxCell>
        <mxCell id="IJMmHJ0wsqWwXN11yNMt-24" value="" style="edgeStyle=orthogonalEdgeStyle;rounded=0;orthogonalLoop=1;jettySize=auto;html=1;endArrow=none;endFill=0;strokeWidth=4;exitX=1;exitY=0.5;exitDx=0;exitDy=0;exitPerimeter=0;entryX=0;entryY=0.5;entryDx=0;entryDy=0;entryPerimeter=0;" edge="1" parent="IJMmHJ0wsqWwXN11yNMt-1" source="3JZlBVhxNg1qrZOO-ibP-1" target="IJMmHJ0wsqWwXN11yNMt-23">
          <mxGeometry relative="1" as="geometry">
            <mxPoint x="610" y="254" as="sourcePoint" />
            <mxPoint x="700" y="254" as="targetPoint" />
          </mxGeometry>
        </mxCell>
        <mxCell id="IJMmHJ0wsqWwXN11yNMt-28" value="" style="edgeStyle=orthogonalEdgeStyle;rounded=0;orthogonalLoop=1;jettySize=auto;html=1;endArrow=none;endFill=0;strokeWidth=4;exitX=1;exitY=0.5;exitDx=0;exitDy=0;exitPerimeter=0;entryX=0;entryY=0.5;entryDx=0;entryDy=0;entryPerimeter=0;" edge="1" parent="IJMmHJ0wsqWwXN11yNMt-1" source="IJMmHJ0wsqWwXN11yNMt-19" target="IJMmHJ0wsqWwXN11yNMt-29">
          <mxGeometry relative="1" as="geometry">
            <mxPoint x="670" y="244" as="sourcePoint" />
            <mxPoint x="840" y="244" as="targetPoint" />
          </mxGeometry>
        </mxCell>
        <mxCell id="IJMmHJ0wsqWwXN11yNMt-29" value="" style="verticalLabelPosition=bottom;verticalAlign=top;html=1;strokeWidth=4;shape=mxgraph.flowchart.on-page_reference;strokeColor=#82b366;fillColor=#d5e8d4;" vertex="1" parent="IJMmHJ0wsqWwXN11yNMt-1">
          <mxGeometry x="740" y="229" width="30" height="30" as="geometry" />
        </mxCell>
        <mxCell id="IJMmHJ0wsqWwXN11yNMt-30" value="" style="edgeStyle=orthogonalEdgeStyle;rounded=0;orthogonalLoop=1;jettySize=auto;html=1;endArrow=none;endFill=0;strokeWidth=4;exitX=1;exitY=0.5;exitDx=0;exitDy=0;exitPerimeter=0;entryX=0;entryY=0.5;entryDx=0;entryDy=0;entryPerimeter=0;" edge="1" parent="IJMmHJ0wsqWwXN11yNMt-1" source="IJMmHJ0wsqWwXN11yNMt-29" target="IJMmHJ0wsqWwXN11yNMt-31">
          <mxGeometry relative="1" as="geometry">
            <mxPoint x="770" y="244" as="sourcePoint" />
            <mxPoint x="840" y="244" as="targetPoint" />
          </mxGeometry>
        </mxCell>
        <mxCell id="IJMmHJ0wsqWwXN11yNMt-31" value="" style="verticalLabelPosition=bottom;verticalAlign=top;html=1;strokeWidth=4;shape=mxgraph.flowchart.on-page_reference;strokeColor=#82b366;fillColor=#d5e8d4;" vertex="1" parent="IJMmHJ0wsqWwXN11yNMt-1">
          <mxGeometry x="790" y="229" width="30" height="30" as="geometry" />
        </mxCell>
        <mxCell id="x6NAEURtEgTTv6vQiPtD-1" value="" style="verticalLabelPosition=bottom;verticalAlign=top;html=1;strokeWidth=4;shape=mxgraph.flowchart.on-page_reference;plain-purple;gradientColor=none;strokeColor=#000000;fillColor=#D5E8D4;" vertex="1" parent="IJMmHJ0wsqWwXN11yNMt-1">
          <mxGeometry x="770" y="150" width="30" height="30" as="geometry" />
        </mxCell>
        <mxCell id="x6NAEURtEgTTv6vQiPtD-3" style="edgeStyle=orthogonalEdgeStyle;curved=1;rounded=0;orthogonalLoop=1;jettySize=auto;html=1;exitX=1;exitY=0.5;exitDx=0;exitDy=0;exitPerimeter=0;entryX=0;entryY=0.5;entryDx=0;entryDy=0;entryPerimeter=0;endArrow=none;endFill=0;strokeWidth=4;fontFamily=Courier New;fontColor=#009900;" edge="1" parent="IJMmHJ0wsqWwXN11yNMt-1" source="x6NAEURtEgTTv6vQiPtD-1" target="x6NAEURtEgTTv6vQiPtD-2">
          <mxGeometry relative="1" as="geometry">
            <mxPoint x="619" y="175" as="sourcePoint" />
            <mxPoint x="700" y="254" as="targetPoint" />
          </mxGeometry>
        </mxCell>
        <mxCell id="3JZlBVhxNg1qrZOO-ibP-2" value="" style="edgeStyle=orthogonalEdgeStyle;rounded=0;orthogonalLoop=1;jettySize=auto;html=1;endArrow=none;endFill=0;strokeWidth=4;exitX=1;exitY=0.5;exitDx=0;exitDy=0;exitPerimeter=0;entryX=0;entryY=0.5;entryDx=0;entryDy=0;entryPerimeter=0;" edge="1" parent="IJMmHJ0wsqWwXN11yNMt-1" source="IJMmHJ0wsqWwXN11yNMt-31" target="3JZlBVhxNg1qrZOO-ibP-1">
          <mxGeometry relative="1" as="geometry">
            <mxPoint x="770" y="244" as="sourcePoint" />
            <mxPoint x="920" y="244" as="targetPoint" />
          </mxGeometry>
        </mxCell>
        <mxCell id="3JZlBVhxNg1qrZOO-ibP-1" value="" style="verticalLabelPosition=bottom;verticalAlign=top;html=1;strokeWidth=4;shape=mxgraph.flowchart.on-page_reference;strokeColor=#82b366;fillColor=#d5e8d4;" vertex="1" parent="IJMmHJ0wsqWwXN11yNMt-1">
          <mxGeometry x="910" y="229" width="30" height="30" as="geometry" />
        </mxCell>
        <mxCell id="x6NAEURtEgTTv6vQiPtD-2" value="" style="verticalLabelPosition=bottom;verticalAlign=top;html=1;strokeWidth=4;shape=mxgraph.flowchart.on-page_reference;plain-purple;gradientColor=none;strokeColor=#000000;fillColor=#D5E8D4;" vertex="1" parent="IJMmHJ0wsqWwXN11yNMt-1">
          <mxGeometry x="860" y="229" width="30" height="30" as="geometry" />
        </mxCell>
        <mxCell id="JdLCAuWeS7Fm-064PE0J-0" value="" style="group" vertex="1" connectable="0" parent="IJMmHJ0wsqWwXN11yNMt-1">
          <mxGeometry x="730" y="220" width="50" height="80" as="geometry" />
        </mxCell>
        <mxCell id="JdLCAuWeS7Fm-064PE0J-1" value="" style="rounded=0;whiteSpace=wrap;html=1;fillColor=none;strokeColor=#9673a6;" vertex="1" parent="JdLCAuWeS7Fm-064PE0J-0">
          <mxGeometry x="1.7857142857142858" width="46.42857142857143" height="80" as="geometry" />
        </mxCell>
        <mxCell id="JdLCAuWeS7Fm-064PE0J-2" value="PR/Mini QA" style="text;html=1;align=center;verticalAlign=middle;whiteSpace=wrap;rounded=0;" vertex="1" parent="JdLCAuWeS7Fm-064PE0J-0">
          <mxGeometry y="40" width="50" height="35" as="geometry" />
        </mxCell>
        <mxCell id="JdLCAuWeS7Fm-064PE0J-3" value="" style="group" vertex="1" connectable="0" parent="IJMmHJ0wsqWwXN11yNMt-1">
          <mxGeometry x="780" y="220" width="50" height="80" as="geometry" />
        </mxCell>
        <mxCell id="JdLCAuWeS7Fm-064PE0J-4" value="" style="rounded=0;whiteSpace=wrap;html=1;fillColor=none;strokeColor=#9673a6;" vertex="1" parent="JdLCAuWeS7Fm-064PE0J-3">
          <mxGeometry x="1.7857142857142858" width="46.42857142857143" height="80" as="geometry" />
        </mxCell>
        <mxCell id="JdLCAuWeS7Fm-064PE0J-5" value="PR/Mini QA" style="text;html=1;align=center;verticalAlign=middle;whiteSpace=wrap;rounded=0;" vertex="1" parent="JdLCAuWeS7Fm-064PE0J-3">
          <mxGeometry y="40" width="50" height="35" as="geometry" />
        </mxCell>
        <mxCell id="JdLCAuWeS7Fm-064PE0J-6" value="" style="group" vertex="1" connectable="0" parent="IJMmHJ0wsqWwXN11yNMt-1">
          <mxGeometry x="900" y="220" width="50" height="80" as="geometry" />
        </mxCell>
        <mxCell id="JdLCAuWeS7Fm-064PE0J-7" value="" style="rounded=0;whiteSpace=wrap;html=1;fillColor=none;strokeColor=#9673a6;" vertex="1" parent="JdLCAuWeS7Fm-064PE0J-6">
          <mxGeometry x="1.7857142857142858" width="46.42857142857143" height="80" as="geometry" />
        </mxCell>
        <mxCell id="JdLCAuWeS7Fm-064PE0J-8" value="PR/Mini QA" style="text;html=1;align=center;verticalAlign=middle;whiteSpace=wrap;rounded=0;" vertex="1" parent="JdLCAuWeS7Fm-064PE0J-6">
          <mxGeometry y="40" width="50" height="35" as="geometry" />
        </mxCell>
        <mxCell id="JdLCAuWeS7Fm-064PE0J-9" value="" style="group" vertex="1" connectable="0" parent="IJMmHJ0wsqWwXN11yNMt-1">
          <mxGeometry x="950" y="220" width="50" height="80" as="geometry" />
        </mxCell>
        <mxCell id="JdLCAuWeS7Fm-064PE0J-10" value="" style="rounded=0;whiteSpace=wrap;html=1;fillColor=none;strokeColor=#9673a6;" vertex="1" parent="JdLCAuWeS7Fm-064PE0J-9">
          <mxGeometry x="1.7857142857142858" width="46.42857142857143" height="80" as="geometry" />
        </mxCell>
        <mxCell id="JdLCAuWeS7Fm-064PE0J-11" value="PR/Mini QA" style="text;html=1;align=center;verticalAlign=middle;whiteSpace=wrap;rounded=0;" vertex="1" parent="JdLCAuWeS7Fm-064PE0J-9">
          <mxGeometry y="40" width="50" height="35" as="geometry" />
        </mxCell>
      </root>
    </mxGraphModel>
  </diagram>
</mxfile>
